<svg width="100" height="100" fill="none" xmlns="http://www.w3.org/2000/svg"><rect width="100" height="100" rx="25" fill="url(#a)"/><rect x="7" y="7" width="86" height="86" rx="20" fill="#fff"/><path d="M33 49.923a2.615 2.615 0 0 0 2.615 2.615m0-23.538A2.615 2.615 0 0 0 33 31.615m23.538 0A2.615 2.615 0 0 0 53.923 29m-11.77 0h5.232M33 38.154v5.23m10.462 17A2.615 2.615 0 0 0 46.077 63M67 42.077a2.615 2.615 0 0 0-2.615-2.615m0 23.538A2.615 2.615 0 0 0 67 60.385M52.615 63h5.231M67 48.615v5.231m-10.462-3.923V39.461h-10.46a2.615 2.615 0 0 0-2.615 2.616v10.462h10.461a2.615 2.615 0 0 0 2.615-2.616Z" stroke="#FAB355" stroke-width="3.15" stroke-linecap="round" stroke-linejoin="round"/><defs><linearGradient id="a" x1="12.5" y1="5" x2="89.5" y2="93" gradientUnits="userSpaceOnUse"><stop stop-color="#fff"/><stop offset="1" stop-color="#FFF2E1"/></linearGradient></defs></svg>