<svg width="100" height="100" fill="none" xmlns="http://www.w3.org/2000/svg"><rect width="100" height="100" rx="25" fill="url(#a)"/><rect x="7" y="7" width="86" height="86" rx="20" fill="#fff"/><path d="M32.154 30.308A3.154 3.154 0 0 0 29 33.462v28.384A3.154 3.154 0 0 0 32.154 65h34.692A3.154 3.154 0 0 0 70 61.846V33.462a3.154 3.154 0 0 0-3.154-3.154h-6.308M38.462 24v12.615M60.538 24v12.615m-22.076-6.307H54.23m-4.826 6.307v4.731m-9.556.789L44.5 44.5m-4 8.673L45 50.5m4.405 7V52m9.095 1.173L53.5 50m5.462-7.865-4.1 2.365" stroke="#FAB355" stroke-width="3.154" stroke-linecap="round" stroke-linejoin="round"/><path d="M49.433 51.192a4.462 4.462 0 1 0 0-8.923 4.462 4.462 0 0 0 0 8.923Z" stroke="#FAB355" stroke-width="2.231" stroke-linecap="round" stroke-linejoin="round"/><defs><linearGradient id="a" x1="12.5" y1="5" x2="89.5" y2="93" gradientUnits="userSpaceOnUse"><stop stop-color="#fff"/><stop offset="1" stop-color="#FFF2E1"/></linearGradient></defs></svg>