<svg width="100" height="100" fill="none" xmlns="http://www.w3.org/2000/svg"><rect width="100" height="100" rx="25" fill="url(#a)"/><rect x="7" y="7" width="86" height="86" rx="20" fill="#fff"/><path d="M28.25 62.58V38.262c0-1.15.405-2.127 1.22-2.947.817-.82 1.789-1.225 2.93-1.224h9.05v-4.67c0-1.15.405-2.128 1.22-2.948.817-.82 1.789-1.225 2.93-1.224h8.8c1.143 0 2.115.406 2.931 1.226.816.82 1.22 1.797 1.219 2.945v4.671h9.05c1.143 0 2.115.406 2.931 1.226.816.82 1.22 1.797 1.219 2.945V62.58c0 1.15-.405 2.127-1.22 2.947-.817.82-1.789 1.225-2.93 1.224H32.4c-1.143 0-2.115-.406-2.931-1.226-.817-.82-1.22-1.797-1.219-2.945Zm3.9-.001v.25h35.7V38.013h-35.7V62.58Zm13.2-28.737v.25h9.3v-4.92h-9.3v4.67Zm-12.95 0h8.8v-4.42c0-1.217.431-2.258 1.294-3.124.862-.867 1.898-1.3 3.106-1.298h8.8c1.21 0 2.246.433 3.109 1.3.862.866 1.292 1.907 1.291 3.121l-26.4 4.421Z" fill="#FAB355" stroke="#fff" stroke-width=".5"/><defs><linearGradient id="a" x1="12.5" y1="5" x2="89.5" y2="93" gradientUnits="userSpaceOnUse"><stop stop-color="#fff"/><stop offset="1" stop-color="#FFF2E1"/></linearGradient></defs></svg>