<svg width="93" height="93" fill="none" xmlns="http://www.w3.org/2000/svg"><rect width="92.437" height="92.437" rx="23.109" fill="url(#a)"/><rect x="6.469" y="6.471" width="79.496" height="79.496" rx="18.487" fill="#fff"/><path d="M58 44H34a4 4 0 0 0-4 4v16a4 4 0 0 0 4 4h24a4 4 0 0 0 4-4V48a4 4 0 0 0-4-4Zm0 20H34v-8h24v8Zm0-12H34v-4h24v4ZM31.86 31.84l2.82 2.82c6.24-6.26 16.38-6.26 22.64 0l2.82-2.82c-7.8-7.84-20.46-7.84-28.28 0Zm5.66 5.66 2.82 2.82a8.016 8.016 0 0 1 11.32 0l2.82-2.82a12 12 0 0 0-16.96 0Z" fill="#FAB355"/><defs><linearGradient id="a" x1="11.555" y1="4.622" x2="82.731" y2="85.966" gradientUnits="userSpaceOnUse"><stop stop-color="#fff"/><stop offset="1" stop-color="#FFF2E1"/></linearGradient></defs></svg>