<svg width="146" height="50" fill="none" xmlns="http://www.w3.org/2000/svg"><path d="M66.585 36.5V14.7h5.045v17.689h10.932V36.5H66.585Zm26.365.25c-1.785 0-3.374-.375-4.765-1.122a8.728 8.728 0 0 1-3.27-3.052c-.789-1.308-1.183-2.793-1.183-4.454 0-1.681.394-3.166 1.183-4.453a8.41 8.41 0 0 1 3.27-3.053c1.391-.747 2.98-1.12 4.765-1.12 1.765 0 3.343.373 4.734 1.12 1.391.727 2.481 1.734 3.27 3.021.789 1.288 1.184 2.783 1.184 4.485 0 1.661-.395 3.146-1.184 4.454-.789 1.287-1.879 2.304-3.27 3.052-1.39.747-2.969 1.121-4.734 1.121Zm0-3.987c.81 0 1.537-.187 2.18-.56a4.018 4.018 0 0 0 1.526-1.59c.374-.705.561-1.536.561-2.49 0-.977-.187-1.807-.56-2.492a4.018 4.018 0 0 0-1.527-1.589c-.643-.373-1.37-.56-2.18-.56s-1.536.187-2.18.56a4.24 4.24 0 0 0-1.557 1.589c-.374.685-.56 1.515-.56 2.491 0 .955.186 1.786.56 2.492a4.24 4.24 0 0 0 1.557 1.588c.644.374 1.37.56 2.18.56Zm20.315 10.028a17.61 17.61 0 0 1-4.578-.592c-1.454-.373-2.668-.944-3.644-1.713l1.931-3.488c.706.582 1.598 1.038 2.678 1.37 1.1.354 2.18.53 3.239.53 1.723 0 2.969-.384 3.737-1.152.789-.769 1.184-1.91 1.184-3.426v-2.523l.311-4.204-.062-4.236v-3.613h4.609v13.953c0 3.114-.809 5.409-2.429 6.883-1.619 1.474-3.945 2.211-6.976 2.211Zm-.748-7.1c-1.557 0-2.969-.333-4.235-.997a8.237 8.237 0 0 1-3.021-2.835c-.748-1.225-1.121-2.647-1.121-4.266 0-1.64.373-3.063 1.121-4.267a7.91 7.91 0 0 1 3.021-2.834c1.266-.664 2.678-.997 4.235-.997 1.412 0 2.658.291 3.738.872 1.079.561 1.92 1.443 2.522 2.648.602 1.183.903 2.71.903 4.578 0 1.848-.301 3.374-.903 4.578-.602 1.184-1.443 2.066-2.522 2.647-1.08.582-2.326.872-3.738.872Zm.966-3.987c.851 0 1.609-.166 2.273-.498a3.912 3.912 0 0 0 1.557-1.464c.374-.623.561-1.34.561-2.15 0-.83-.187-1.546-.561-2.148a3.702 3.702 0 0 0-1.557-1.433c-.664-.353-1.422-.53-2.273-.53-.852 0-1.609.177-2.274.53a3.918 3.918 0 0 0-1.588 1.433c-.374.602-.561 1.318-.561 2.149 0 .81.187 1.526.561 2.149.394.623.924 1.11 1.588 1.463.665.333 1.422.499 2.274.499Zm21.682 5.045c-1.786 0-3.374-.374-4.765-1.121a8.733 8.733 0 0 1-3.27-3.052c-.789-1.308-1.184-2.793-1.184-4.454 0-1.681.395-3.166 1.184-4.453a8.415 8.415 0 0 1 3.27-3.053c1.391-.747 2.979-1.12 4.765-1.12 1.765 0 3.343.373 4.734 1.12 1.391.727 2.481 1.734 3.27 3.021.789 1.288 1.184 2.783 1.184 4.485 0 1.661-.395 3.146-1.184 4.454-.789 1.287-1.879 2.304-3.27 3.052-1.391.747-2.969 1.121-4.734 1.121Zm0-3.986c.81 0 1.537-.187 2.18-.56a4.016 4.016 0 0 0 1.526-1.59c.374-.705.561-1.536.561-2.49 0-.977-.187-1.807-.561-2.492a4.016 4.016 0 0 0-1.526-1.589c-.643-.373-1.37-.56-2.18-.56s-1.536.187-2.18.56a4.232 4.232 0 0 0-1.557 1.589c-.374.685-.561 1.515-.561 2.491 0 .955.187 1.786.561 2.492a4.232 4.232 0 0 0 1.557 1.588c.644.374 1.37.56 2.18.56Z" fill="#fff"/><path fill-rule="evenodd" clip-rule="evenodd" d="M22.806 21.599c-1.078 1.098-1.739 2.152-1.739 2.773 0 .62.662 1.675 1.74 2.773l1.738 1.773 1.772-1.74c1.182-1.16 1.773-2.095 1.773-2.806 0-.711-.591-1.647-1.773-2.806l-1.772-1.74-1.739 1.773ZM0 27.229c0 2.513 0 2.513 6.014 2.513 8.375 0 11.287.854 15.112 4.432l2.007 1.877-.014-2.225c-.014-2.167-.083-2.297-2.682-5.013l-2.668-2.789H0v1.206Zm30.568-.674c0 .291-1.022 1.54-2.272 2.774-2.195 2.167-2.272 2.32-2.272 4.468v2.224l2.273-2.078c3.601-3.29 5.712-3.924 13.695-4.113 6.43-.152 6.682-.19 6.914-1.052a8.689 8.689 0 0 0 .245-1.824l.006-.93h-9.295c-7.292 0-9.294.115-9.294.53ZM1.24 32.793c0 .13.496 1.247 1.103 2.483l1.102 2.248 4.821.137c4.524.128 4.927.21 6.525 1.318 2.208 1.532 3.386 3.952 3.386 6.96 0 2.55.023 2.572 3.1 3.033l1.966.295-.192-3.463c-.242-4.35-1.405-7.163-3.92-9.48-3.199-2.949-4.826-3.448-11.798-3.618-3.351-.082-6.093-.042-6.093.087Zm34.08.419c-2.533.8-3.99 1.684-5.637 3.415-2.49 2.619-3.368 4.809-3.576 8.915-.122 2.412-.036 3.615.26 3.615.244 0 1.382-.201 2.53-.447l2.085-.448V45.95c0-3.056 1.233-5.59 3.427-7.043 1.509-1 2.144-1.13 6.455-1.315l4.783-.207 1.126-2.065c.62-1.136 1.13-2.205 1.136-2.376.016-.525-10.807-.295-12.59.269Zm-29.123 7.64c0 .904 7.297 6.24 8.532 6.24.806 0 .708-2.714-.149-4.164-.387-.656-1.298-1.475-2.024-1.82-1.418-.672-6.359-.87-6.359-.256Zm29.976.434c-1.576 1.04-2.267 2.334-2.285 4.284-.013 1.45.061 1.553.915 1.285 2.094-.657 8.159-5.12 8.159-6.003 0-.203-1.255-.369-2.789-.367-2.06.002-3.104.211-4 .801Z" fill="#A9E1A5"/><path fill-rule="evenodd" clip-rule="evenodd" d="M18.134.598c-2.646.73-6.032 2.36-8.158 3.926L8.179 5.848l3.006 3.01 3.006 3.01 1.8-1.142c.991-.628 3.003-1.467 4.471-1.864l2.67-.723V0l-1.549.037c-.851.02-2.404.273-3.45.561Zm7.89 3.484v4.082l1.962.479c1.08.263 3.127 1.068 4.55 1.789l2.586 1.309 2.866-2.845c1.577-1.564 2.76-3.016 2.63-3.226-.13-.21-1.36-1.11-2.735-1.998C35.166 1.916 29.722 0 27.448 0h-1.424v4.082ZM4.857 9.604c-1.652 2.166-3.579 6.3-4.235 9.084-1.01 4.283-1.238 4.032 3.662 4.032H8.57l.28-1.756c.154-.965.933-2.947 1.732-4.402l1.454-2.647-2.805-2.827C7.687 9.534 6.302 8.262 6.153 8.262c-.15 0-.733.604-1.296 1.342Zm35.25 1.425-2.95 2.95 1.436 2.615c.79 1.438 1.561 3.404 1.715 4.37l.28 1.756h4.284c2.357 0 4.285-.152 4.285-.338 0-3.02-2.847-10.325-5.096-13.076L43.058 8.08l-2.95 2.95Zm-20.165 1.22c-3.43 1.215-6.818 5.048-7.883 8.921l-.426 1.55h3.238c3.228 0 3.24-.005 4.094-1.387 1.074-1.738 4.766-5.223 5.533-5.223.573 0 5.49 4.762 6.168 5.972.274.49 1.107.637 3.607.637h3.25l-.425-1.549c-1.128-4.101-4.432-7.695-8.19-8.909-2.613-.843-6.602-.849-8.966-.011Z" fill="#FAB355"/></svg>