<svg width="146" height="50" fill="none" xmlns="http://www.w3.org/2000/svg"><path d="M66.585 14.7h5.045v17.689h10.932V36.5H66.585V14.7ZM92.89 36.75c-1.765 0-3.354-.364-4.766-1.09-1.39-.748-2.48-1.776-3.27-3.084-.789-1.308-1.183-2.793-1.183-4.454 0-1.66.394-3.145 1.183-4.453.79-1.308 1.88-2.326 3.27-3.053 1.412-.747 3-1.12 4.766-1.12 1.764 0 3.342.373 4.733 1.12 1.391.727 2.482 1.745 3.271 3.053.788 1.308 1.183 2.792 1.183 4.453 0 1.661-.395 3.146-1.183 4.454-.789 1.308-1.88 2.336-3.27 3.083-1.392.727-2.97 1.09-4.734 1.09Zm0-3.987c1.245 0 2.263-.416 3.052-1.246.81-.851 1.214-1.983 1.214-3.395s-.405-2.533-1.214-3.363c-.79-.852-1.807-1.277-3.052-1.277-1.246 0-2.274.425-3.084 1.277-.81.83-1.214 1.951-1.214 3.363s.404 2.544 1.214 3.395c.81.83 1.838 1.246 3.084 1.246Zm29.719-13.018v13.952c0 3.073-.799 5.357-2.398 6.852-1.598 1.495-3.934 2.242-7.007 2.242-1.62 0-3.156-.197-4.609-.592-1.454-.394-2.658-.965-3.613-1.713l1.931-3.488c.706.582 1.599 1.038 2.678 1.37 1.08.354 2.16.53 3.239.53 1.682 0 2.917-.384 3.706-1.152.81-.748 1.215-1.89 1.215-3.426v-.716c-1.267 1.39-3.031 2.086-5.295 2.086-1.536 0-2.948-.332-4.235-.996a7.85 7.85 0 0 1-3.021-2.866c-.748-1.225-1.121-2.636-1.121-4.235 0-1.599.373-3.01 1.121-4.236a7.624 7.624 0 0 1 3.021-2.834c1.287-.685 2.699-1.028 4.235-1.028 2.43 0 4.278.8 5.544 2.398v-2.149h4.609Zm-9.187 11.959c1.287 0 2.336-.374 3.145-1.121.831-.769 1.246-1.765 1.246-2.99 0-1.225-.415-2.211-1.246-2.959-.809-.768-1.858-1.152-3.145-1.152s-2.346.384-3.177 1.152c-.83.748-1.246 1.734-1.246 2.959s.416 2.221 1.246 2.99c.831.747 1.89 1.12 3.177 1.12Zm21.682 5.045c-1.765 0-3.353-.363-4.765-1.09-1.391-.747-2.481-1.775-3.27-3.083-.789-1.308-1.183-2.793-1.183-4.454 0-1.66.394-3.145 1.183-4.453.789-1.308 1.879-2.326 3.27-3.053 1.412-.747 3-1.12 4.765-1.12 1.765 0 3.343.373 4.734 1.12 1.391.727 2.481 1.745 3.27 3.053.789 1.308 1.184 2.792 1.184 4.453 0 1.661-.395 3.146-1.184 4.454-.789 1.308-1.879 2.336-3.27 3.083-1.391.727-2.969 1.09-4.734 1.09Zm0-3.986c1.246 0 2.263-.416 3.052-1.246.81-.851 1.215-1.983 1.215-3.395s-.405-2.533-1.215-3.363c-.789-.852-1.806-1.277-3.052-1.277s-2.273.425-3.083 1.277c-.81.83-1.215 1.951-1.215 3.363s.405 2.544 1.215 3.395c.81.83 1.837 1.246 3.083 1.246Z" fill="#222"/><path fill-rule="evenodd" clip-rule="evenodd" d="M22.806 21.599c-1.078 1.098-1.739 2.152-1.739 2.773 0 .62.662 1.675 1.74 2.773l1.738 1.773 1.772-1.74c1.182-1.16 1.773-2.095 1.773-2.806 0-.711-.591-1.647-1.773-2.806l-1.772-1.74-1.739 1.773ZM0 27.229c0 2.513 0 2.513 6.014 2.513 8.375 0 11.287.854 15.112 4.432l2.007 1.877-.014-2.225c-.014-2.167-.083-2.297-2.682-5.013l-2.668-2.789H0v1.206Zm30.568-.674c0 .291-1.022 1.54-2.272 2.774-2.195 2.167-2.272 2.32-2.272 4.468v2.224l2.273-2.078c3.601-3.29 5.712-3.924 13.695-4.113 6.43-.152 6.682-.19 6.914-1.052a8.689 8.689 0 0 0 .245-1.824l.006-.93h-9.295c-7.292 0-9.294.115-9.294.53ZM1.24 32.793c0 .13.496 1.247 1.103 2.483l1.102 2.248 4.821.137c4.524.128 4.927.21 6.525 1.318 2.208 1.532 3.386 3.952 3.386 6.96 0 2.55.023 2.572 3.1 3.033l1.966.295-.192-3.463c-.242-4.35-1.405-7.163-3.92-9.48-3.199-2.949-4.826-3.448-11.798-3.618-3.351-.082-6.093-.042-6.093.087Zm34.08.419c-2.533.8-3.99 1.684-5.637 3.415-2.49 2.619-3.368 4.809-3.576 8.915-.122 2.412-.036 3.615.26 3.615.244 0 1.382-.201 2.53-.447l2.085-.448V45.95c0-3.056 1.233-5.59 3.427-7.043 1.509-1 2.144-1.13 6.455-1.315l4.783-.207 1.126-2.065c.62-1.136 1.13-2.205 1.136-2.376.016-.525-10.807-.295-12.59.269Zm-29.123 7.64c0 .904 7.297 6.24 8.532 6.24.806 0 .708-2.714-.149-4.164-.387-.656-1.298-1.475-2.024-1.82-1.418-.672-6.359-.87-6.359-.256Zm29.976.434c-1.576 1.04-2.267 2.334-2.285 4.284-.013 1.45.061 1.553.915 1.285 2.094-.657 8.159-5.12 8.159-6.003 0-.203-1.255-.369-2.789-.367-2.06.002-3.104.211-4 .801Z" fill="#5B9D57"/><path fill-rule="evenodd" clip-rule="evenodd" d="M18.134.598c-2.646.73-6.032 2.36-8.158 3.926L8.18 5.848l3.006 3.01 3.007 3.01 1.8-1.142c.99-.628 3.002-1.467 4.47-1.864l2.671-.723V0l-1.549.037c-.852.02-2.404.273-3.45.561Zm7.89 3.484v4.082l1.963.479c1.08.263 3.126 1.068 4.549 1.789l2.586 1.309 2.867-2.845c1.576-1.564 2.76-3.016 2.63-3.226-.13-.21-1.36-1.11-2.736-1.998C35.166 1.916 29.723 0 27.45 0h-1.424v4.082ZM4.859 9.604c-1.652 2.166-3.58 6.3-4.235 9.084-1.01 4.283-1.238 4.032 3.662 4.032H8.57l.28-1.756c.154-.965.934-2.947 1.733-4.402l1.454-2.647-2.806-2.827C7.687 9.534 6.303 8.262 6.154 8.262c-.15 0-.733.604-1.296 1.342Zm35.25 1.425-2.95 2.95 1.435 2.615c.79 1.438 1.561 3.404 1.716 4.37l.28 1.756h4.284c2.356 0 4.284-.152 4.284-.338 0-3.02-2.846-10.325-5.095-13.076L43.059 8.08l-2.951 2.95Zm-20.166 1.22c-3.43 1.215-6.818 5.048-7.883 8.921l-.426 1.55h3.238c3.228 0 3.24-.005 4.094-1.387 1.075-1.738 4.766-5.223 5.533-5.223.573 0 5.49 4.762 6.168 5.972.274.49 1.107.637 3.607.637h3.251l-.426-1.549c-1.128-4.101-4.432-7.695-8.19-8.909-2.612-.843-6.602-.849-8.966-.011Z" fill="#FAB355"/></svg>