<svg width="41" height="41" fill="none" xmlns="http://www.w3.org/2000/svg"><g clip-path="url(#a)"><g filter="url(#b)" clip-rule="evenodd"><path fill-rule="evenodd" d="M0 20.04v-2.005l.002-.83.003-.636.003-.537.005-.473.005-.427.007-.393.007-.365.009-.343.01-.324.01-.307.011-.294.013-.282.013-.27.015-.261.015-.252.017-.244.018-.237.018-.23.02-.223.02-.217.022-.212.023-.207.023-.202.025-.197.026-.193.026-.19.028-.184.029-.182.03-.178.03-.174.032-.171.033-.168.034-.165.035-.162.036-.16.037-.156.038-.154.04-.152.04-.149.04-.147.043-.144.043-.142.044-.14.046-.138.046-.136.048-.134.048-.131.05-.13.05-.128.052-.126.053-.124.054-.123.055-.12.057-.12.057-.117.058-.116.06-.114.06-.112.062-.11.063-.11.064-.108.065-.106.066-.105.068-.103.068-.102.07-.1.07-.1.073-.097.073-.096.074-.095.076-.093.077-.092.078-.091.079-.09.08-.088.082-.086.083-.086.084-.084.086-.083.086-.082.088-.08.09-.08.09-.078.092-.077.094-.076.094-.074.097-.074.097-.072.099-.07.1-.07.102-.07.103-.067.105-.066.106-.065.107-.064.11-.063.11-.062.112-.06.114-.06.116-.059.117-.057.119-.056.12-.055.123-.054.124-.053.126-.052.128-.051.13-.05.13-.049.134-.047.136-.047.138-.045.14-.045.141-.043.145-.042.146-.042.15-.04.15-.039.154-.038.157-.037.159-.036.162-.035.165-.034.167-.033.171-.032.174-.031.178-.03.181-.029.185-.027.188-.027.193-.026.197-.025.202-.024.206-.022.212-.022.217-.02.223-.02.229-.019.236-.018.243-.016.251-.016.26-.015.27-.013.28-.013.294-.011.306-.011.323-.01.341-.008.363-.008.39-.006.425-.006.468-.005.53-.003.627-.003.808-.001L19.474 0h2.488l.854.002.647.002.543.004.477.004.43.006.396.006.367.007.344.009.326.01.309.01.294.011.283.013.272.013.261.015.253.015.244.017.237.017.23.019.224.02.218.02.213.021.207.023.202.023.198.025.193.026.19.026.185.028.182.029.178.03.174.03.172.032.168.032.165.034.163.035.16.036.156.037.154.038.152.039.15.04.146.041.145.042.142.043.14.045.138.045.136.046.134.048.132.048.13.05.128.05.126.052.125.053.122.054.121.055.12.056.117.057.116.058.114.06.112.06.111.062.11.063.108.064.106.065.105.066.103.067.102.069.1.07.1.07.097.072.096.073.095.074.094.076.092.076.091.078.09.08.088.08.087.081.085.083.085.084.083.086.082.086.08.088.08.09.078.09.077.092.076.093.075.095.073.096.072.097.071.099.07.1.069.102.067.103.067.104.065.106.064.108.063.109.062.11.06.112.06.114.06.116.056.117.057.118.055.12.054.123.053.124.052.126.051.127.05.13.049.131.048.134.046.135.046.138.044.14.044.141.042.144.041.146.04.15.04.15.038.154.037.156.037.16.035.16.034.165.033.168.032.17.03.174.03.178.03.18.027.185.027.188.026.193.025.196.024.201.023.207.021.21.021.217.02.223.019.228.017.236.017.242.016.25.015.26.013.27.013.279.012.292.01.305.01.322.009.34.008.36.006.388.006.421.005.465.003.525.003.617.002.787v3.993l-.002.882-.002.658-.003.55-.005.481-.005.434-.006.397-.008.37-.008.346-.01.326-.01.31-.011.297-.013.283-.013.272-.014.263-.016.253-.016.245-.017.238-.019.23-.02.225-.02.218-.021.213-.023.207-.023.203-.025.198-.025.194-.027.19-.028.185-.028.182-.03.179-.03.174-.032.172-.033.169-.033.165-.035.163-.036.16-.037.157-.038.154-.039.152-.04.15-.04.147-.043.144-.043.143-.044.14-.045.138-.046.137-.048.134-.048.132-.05.13-.05.128-.052.126-.053.125-.054.123-.054.12-.056.12-.058.117-.058.116-.059.115-.06.112-.062.111-.063.11-.063.108-.065.106-.066.105-.068.104-.068.102-.07.1-.07.1-.072.097-.073.097-.074.095-.076.093-.076.093-.078.09-.079.09-.08.089-.082.087-.083.086-.084.084-.085.083-.086.082-.088.081-.09.08-.09.078-.092.077-.093.076-.094.075-.096.073-.097.072-.099.072-.1.07-.101.068-.103.068-.105.067-.105.065-.108.064-.109.063-.11.062-.112.061-.114.06-.115.059-.117.057-.119.056-.12.056-.122.054-.124.053-.126.052-.127.051-.13.05-.13.049-.134.048-.135.047-.137.045-.14.045-.142.043-.144.043-.146.041-.148.04-.151.04-.154.038-.155.038-.16.036-.16.035-.165.034-.167.033-.17.032-.174.031-.177.03-.18.03-.185.027-.188.027-.192.026-.196.025-.201.024-.206.023-.21.022-.217.02-.221.02-.229.02-.234.017-.242.017-.25.016-.26.014-.267.014-.28.013-.29.012-.304.01-.32.01-.338.01-.36.007-.385.007-.418.005-.46.005-.52.004-.608.003-.767.001-1.252.001h-2.727l-.911-.001-.67-.003-.557-.003-.486-.004-.436-.005-.4-.007-.372-.007-.348-.008-.328-.01-.311-.01-.297-.011-.285-.013-.273-.013-.263-.014-.254-.015-.246-.017-.238-.017-.231-.018-.225-.02-.219-.02-.213-.022-.208-.022-.203-.023-.199-.025-.194-.025-.19-.027-.186-.027-.182-.029-.178-.03-.176-.03-.171-.031-.17-.033-.165-.034-.163-.034-.16-.036-.157-.037-.155-.038-.152-.038-.15-.04-.147-.041-.145-.042-.143-.043-.14-.044-.138-.045-.137-.047-.134-.047-.132-.048-.13-.05-.129-.05-.126-.052-.125-.052-.123-.054-.12-.055-.12-.056-.118-.057-.116-.058-.114-.06-.113-.06-.111-.061-.11-.063-.108-.063-.107-.065-.105-.066-.104-.067-.102-.068-.1-.07-.1-.07-.098-.072-.096-.073-.095-.074-.094-.076-.092-.076-.091-.078-.09-.079-.089-.08-.087-.081-.086-.083-.084-.084-.084-.085-.082-.086-.08-.088-.08-.09-.079-.09-.077-.091-.076-.093-.075-.095-.073-.095-.073-.097-.07-.099-.07-.1-.07-.101-.068-.103-.066-.104-.066-.106-.064-.107-.063-.109-.062-.11-.061-.112-.06-.114-.059-.115-.057-.117-.057-.118-.055-.12-.055-.122-.053-.124-.052-.125-.051-.128-.05-.129-.049-.131-.048-.133-.047-.135-.045-.138-.045-.139-.044-.141-.042-.144-.042-.146-.04-.148-.04-.15-.038-.154-.037-.156-.037-.159-.035-.16-.034-.165-.033-.167-.033-.17-.03-.173-.03-.177-.03-.18-.028-.184-.027-.188-.026-.192-.025-.196-.024-.2-.023-.205-.022-.21-.02-.216-.02-.222-.02-.227-.018-.234-.016-.242-.016-.25-.015-.257-.014-.268-.013-.278-.012-.29-.01-.303-.01-.318-.01-.337-.007-.357-.007-.383-.006-.416-.005-.456-.003-.514-.003-.599L0 22.34v-2.3Z" fill="#fff" fill-opacity=".26"/><path d="M0 20.04v-2.005l.002-.83.003-.636.003-.537.005-.473.005-.427.007-.393.007-.365.009-.343.01-.324.01-.307.011-.294.013-.282.013-.27.015-.261.015-.252.017-.244.018-.237.018-.23.02-.223.02-.217.022-.212.023-.207.023-.202.025-.197.026-.193.026-.19.028-.184.029-.182.03-.178.03-.174.032-.171.033-.168.034-.165.035-.162.036-.16.037-.156.038-.154.04-.152.04-.149.04-.147.043-.144.043-.142.044-.14.046-.138.046-.136.048-.134.048-.131.05-.13.05-.128.052-.126.053-.124.054-.123.055-.12.057-.12.057-.117.058-.116.06-.114.06-.112.062-.11.063-.11.064-.108.065-.106.066-.105.068-.103.068-.102.07-.1.07-.1.073-.097.073-.096.074-.095.076-.093.077-.092.078-.091.079-.09.08-.088.082-.086.083-.086.084-.084.086-.083.086-.082.088-.08.09-.08.09-.078.092-.077.094-.076.094-.074.097-.074.097-.072.099-.07.1-.07.102-.07.103-.067.105-.066.106-.065.107-.064.11-.063.11-.062.112-.06.114-.06.116-.059.117-.057.119-.056.12-.055.123-.054.124-.053.126-.052.128-.051.13-.05.13-.049.134-.047.136-.047.138-.045.14-.045.141-.043.145-.042.146-.042.15-.04.15-.039.154-.038.157-.037.159-.036.162-.035.165-.034.167-.033.171-.032.174-.031.178-.03.181-.029.185-.027.188-.027.193-.026.197-.025.202-.024.206-.022.212-.022.217-.02.223-.02.229-.019.236-.018.243-.016.251-.016.26-.015.27-.013.28-.013.294-.011.306-.011.323-.01.341-.008.363-.008.39-.006.425-.006.468-.005.53-.003.627-.003.808-.001L19.474 0h2.488l.854.002.647.002.543.004.477.004.43.006.396.006.367.007.344.009.326.01.309.01.294.011.283.013.272.013.261.015.253.015.244.017.237.017.23.019.224.02.218.02.213.021.207.023.202.023.198.025.193.026.19.026.185.028.182.029.178.03.174.03.172.032.168.032.165.034.163.035.16.036.156.037.154.038.152.039.15.04.146.041.145.042.142.043.14.045.138.045.136.046.134.048.132.048.13.05.128.05.126.052.125.053.122.054.121.055.12.056.117.057.116.058.114.06.112.06.111.062.11.063.108.064.106.065.105.066.103.067.102.069.1.07.1.07.097.072.096.073.095.074.094.076.092.076.091.078.09.08.088.08.087.081.085.083.085.084.083.086.082.086.08.088.08.09.078.09.077.092.076.093.075.095.073.096.072.097.071.099.07.1.069.102.067.103.067.104.065.106.064.108.063.109.062.11.06.112.06.114.06.116.056.117.057.118.055.12.054.123.053.124.052.126.051.127.05.13.049.131.048.134.046.135.046.138.044.14.044.141.042.144.041.146.04.15.04.15.038.154.037.156.037.16.035.16.034.165.033.168.032.17.03.174.03.178.03.18.027.185.027.188.026.193.025.196.024.201.023.207.021.21.021.217.02.223.019.228.017.236.017.242.016.25.015.26.013.27.013.279.012.292.01.305.01.322.009.34.008.36.006.388.006.421.005.465.003.525.003.617.002.787v3.993l-.002.882-.002.658-.003.55-.005.481-.005.434-.006.397-.008.37-.008.346-.01.326-.01.31-.011.297-.013.283-.013.272-.014.263-.016.253-.016.245-.017.238-.019.23-.02.225-.02.218-.021.213-.023.207-.023.203-.025.198-.025.194-.027.19-.028.185-.028.182-.03.179-.03.174-.032.172-.033.169-.033.165-.035.163-.036.16-.037.157-.038.154-.039.152-.04.15-.04.147-.043.144-.043.143-.044.14-.045.138-.046.137-.048.134-.048.132-.05.13-.05.128-.052.126-.053.125-.054.123-.054.12-.056.12-.058.117-.058.116-.059.115-.06.112-.062.111-.063.11-.063.108-.065.106-.066.105-.068.104-.068.102-.07.1-.07.1-.072.097-.073.097-.074.095-.076.093-.076.093-.078.09-.079.09-.08.089-.082.087-.083.086-.084.084-.085.083-.086.082-.088.081-.09.08-.09.078-.092.077-.093.076-.094.075-.096.073-.097.072-.099.072-.1.07-.101.068-.103.068-.105.067-.105.065-.108.064-.109.063-.11.062-.112.061-.114.06-.115.059-.117.057-.119.056-.12.056-.122.054-.124.053-.126.052-.127.051-.13.05-.13.049-.134.048-.135.047-.137.045-.14.045-.142.043-.144.043-.146.041-.148.04-.151.04-.154.038-.155.038-.16.036-.16.035-.165.034-.167.033-.17.032-.174.031-.177.03-.18.03-.185.027-.188.027-.192.026-.196.025-.201.024-.206.023-.21.022-.217.02-.221.02-.229.02-.234.017-.242.017-.25.016-.26.014-.267.014-.28.013-.29.012-.304.01-.32.01-.338.01-.36.007-.385.007-.418.005-.46.005-.52.004-.608.003-.767.001-1.252.001h-2.727l-.911-.001-.67-.003-.557-.003-.486-.004-.436-.005-.4-.007-.372-.007-.348-.008-.328-.01-.311-.01-.297-.011-.285-.013-.273-.013-.263-.014-.254-.015-.246-.017-.238-.017-.231-.018-.225-.02-.219-.02-.213-.022-.208-.022-.203-.023-.199-.025-.194-.025-.19-.027-.186-.027-.182-.029-.178-.03-.176-.03-.171-.031-.17-.033-.165-.034-.163-.034-.16-.036-.157-.037-.155-.038-.152-.038-.15-.04-.147-.041-.145-.042-.143-.043-.14-.044-.138-.045-.137-.047-.134-.047-.132-.048-.13-.05-.129-.05-.126-.052-.125-.052-.123-.054-.12-.055-.12-.056-.118-.057-.116-.058-.114-.06-.113-.06-.111-.061-.11-.063-.108-.063-.107-.065-.105-.066-.104-.067-.102-.068-.1-.07-.1-.07-.098-.072-.096-.073-.095-.074-.094-.076-.092-.076-.091-.078-.09-.079-.089-.08-.087-.081-.086-.083-.084-.084-.084-.085-.082-.086-.08-.088-.08-.09-.079-.09-.077-.091-.076-.093-.075-.095-.073-.095-.073-.097-.07-.099-.07-.1-.07-.101-.068-.103-.066-.104-.066-.106-.064-.107-.063-.109-.062-.11-.061-.112-.06-.114-.059-.115-.057-.117-.057-.118-.055-.12-.055-.122-.053-.124-.052-.125-.051-.128-.05-.129-.049-.131-.048-.133-.047-.135-.045-.138-.045-.139-.044-.141-.042-.144-.042-.146-.04-.148-.04-.15-.038-.154-.037-.156-.037-.159-.035-.16-.034-.165-.033-.167-.033-.17-.03-.173-.03-.177-.03-.18-.028-.184-.027-.188-.026-.192-.025-.196-.024-.2-.023-.205-.022-.21-.02-.216-.02-.222-.02-.227-.018-.234-.016-.242-.016-.25-.015-.257-.014-.268-.013-.278-.012-.29-.01-.303-.01-.318-.01-.337-.007-.357-.007-.383-.006-.416-.005-.456-.003-.514-.003-.599L0 22.34v-2.3Z" stroke="#000" stroke-opacity=".04" stroke-width=".417"/></g><path d="m18.368 25.05-5.01-5.01m0 0 5.01-5.01m-5.01 5.01h12.525" stroke="#fff" stroke-width="1.67" stroke-linecap="round" stroke-linejoin="round"/></g><defs><clipPath id="a"><rect x="40.078" y="40.078" width="40.078" height="40.078" rx="20.039" transform="rotate(-180 40.078 40.078)" fill="#fff"/></clipPath><filter id="b" x="-3.549" y="-3.549" width="47.176" height="47.175" filterUnits="userSpaceOnUse" color-interpolation-filters="sRGB"><feFlood flood-opacity="0" result="BackgroundImageFix"/><feGaussianBlur in="BackgroundImageFix" stdDeviation="1.67"/><feComposite in2="SourceAlpha" operator="in" result="effect1_backgroundBlur_4_4710"/><feBlend in="SourceGraphic" in2="effect1_backgroundBlur_4_4710" result="shape"/></filter></defs></svg>