<svg width="29" height="26" fill="none" xmlns="http://www.w3.org/2000/svg"><path d="M14.75 25.384a1.028 1.028 0 0 1-.512-.13C13.673 24.94.563 17.526.563 8.126c0-1.646.52-3.25 1.487-4.586A7.88 7.88 0 0 1 5.952.686 7.918 7.918 0 0 1 10.794.64a7.881 7.881 0 0 1 3.956 2.781 7.882 7.882 0 0 1 3.955-2.78 7.918 7.918 0 0 1 4.843.045 7.88 7.88 0 0 1 3.901 2.855 7.818 7.818 0 0 1 1.488 4.586c0 4-2.325 8.106-6.91 12.21a41.279 41.279 0 0 1-6.765 4.916 1.027 1.027 0 0 1-.512.131ZM8.444 2.375A5.794 5.794 0 0 0 4.357 4.06a5.738 5.738 0 0 0-1.693 4.067c0 7.217 9.721 13.557 12.086 14.995 2.364-1.438 12.085-7.778 12.085-14.995A5.735 5.735 0 0 0 25.53 4.48a5.804 5.804 0 0 0-7.185-1.437 5.763 5.763 0 0 0-2.622 2.863 1.047 1.047 0 0 1-.972.648 1.054 1.054 0 0 1-.972-.648 5.732 5.732 0 0 0-2.128-2.572 5.774 5.774 0 0 0-3.206-.958Z" fill="#FAB355"/></svg>