<svg width="36" height="36" fill="none" xmlns="http://www.w3.org/2000/svg"><path d="m6.772 27.277-.068-.079a13.772 13.772 0 0 1-2.42-4.131c-.579-1.541-.867-3.186-.867-4.931l3.355 9.142Zm0 0 .083-.063m-.083.064.083-.064m0 0a18.305 18.305 0 0 1 4.995-2.695 17.013 17.013 0 0 1 5.781-.985m-10.776 3.68 10.776-3.68m0 0c2.015 0 3.942.33 5.781.987a18.331 18.331 0 0 1 4.995 2.693l.083.064m-10.859-3.744 10.86 3.744m0 0 .067-.08m-.068.08.068-.08m0 0a13.752 13.752 0 0 0 2.422-4.131m-2.422 4.131 2.422-4.131m.866-4.932c0-3.937-1.385-7.293-4.153-10.062-2.768-2.768-6.124-4.153-10.062-4.152l14.215 14.214Zm0 0c0 1.746-.288 3.39-.866 4.932m.866-4.932-.866 4.932m-4.967 6.529-.118.088a13.426 13.426 0 0 1-3.822 1.976c-1.393.46-2.874.69-4.442.69v-.11c-1.557.001-3.027-.226-4.408-.682l12.79-1.962Zm0 0-.118-.088m.118.088-.118-.088M17.63 26.84v.109-.109Zm0 0c1.568 0 3.05.228 4.442.688m-4.442-.688 4.442.688m3.822 1.979a13.404 13.404 0 0 0-3.822-1.979m3.822 1.979-3.822-1.979m-4.442-7.74c-1.706 0-3.14-.584-4.31-1.752-1.168-1.168-1.752-2.602-1.751-4.31 0-1.705.584-3.139 1.752-4.308 1.168-1.17 2.602-1.754 4.309-1.753 1.706 0 3.14.584 4.31 1.753 1.169 1.168 1.752 2.602 1.751 4.309 0 1.705-.584 3.14-1.752 4.309-1.168 1.17-2.602 1.753-4.309 1.752Zm0-15.868c-3.937 0-7.293 1.385-10.062 4.152-2.769 2.768-4.154 6.124-4.152 10.062L17.63 3.921Zm0 3.636c1.734 0 3.196.595 4.387 1.784 1.19 1.19 1.785 2.652 1.784 4.387 0 1.733-.595 3.196-1.784 4.386L17.63 7.557Zm0 28.1c-2.425 0-4.702-.46-6.833-1.38-2.133-.922-3.987-2.17-5.563-3.745C3.658 28.955 2.41 27.1 1.49 24.968.571 22.838.11 20.56.11 18.135c0-2.424.46-4.701 1.38-6.832.921-2.133 2.17-3.987 3.745-5.564 1.576-1.577 3.43-2.825 5.563-3.745 2.131-.918 4.408-1.379 6.833-1.38 2.425 0 4.702.46 6.833 1.38 2.133.921 3.987 2.17 5.564 3.745 1.576 1.577 2.825 3.43 3.746 5.564.92 2.13 1.38 4.408 1.378 6.832 0 2.425-.46 4.702-1.38 6.833-.92 2.133-2.17 3.987-3.745 5.564-1.576 1.576-3.43 2.825-5.563 3.746-2.131.92-4.408 1.38-6.833 1.379Zm0-19.175c.79 0 1.451-.26 1.973-.781.522-.522.781-1.183.781-1.973s-.26-1.451-.781-1.973c-.522-.522-1.182-.782-1.973-.782-.79 0-1.451.26-1.973.782s-.781 1.182-.781 1.973c0 .79.26 1.45.781 1.973.522.521 1.182.781 1.973.781Z" fill="#6F6F6F" stroke="#FCFCFC" stroke-width=".219"/></svg>