<svg width="260" height="50" fill="none" xmlns="http://www.w3.org/2000/svg"><path d="m75.5 3 .135-.991-.135.99ZM198 48l.029-1-.029 1Zm61.964-13.733a1 1 0 0 0-.697-1.23l-8.673-2.404a1 1 0 0 0-.534 1.927l7.709 2.137-2.136 7.71a1 1 0 1 0 1.927.533l2.404-8.673ZM2.304 27.093C9.592 17.216 34.535-1.56 75.366 3.99l.27-1.981C34.067-3.641 8.409 15.449.695 25.906l1.61 1.187ZM75.366 3.99c25.56 3.474 47.42 14.395 67.302 24.648 9.921 5.117 19.373 10.08 28.501 13.818 9.133 3.742 18.009 6.289 26.803 6.544l.058-2c-8.456-.245-17.08-2.698-26.103-6.394-9.028-3.699-18.389-8.612-28.343-13.745-19.868-10.247-42.008-21.327-67.948-24.852l-.27 1.981ZM197.971 49c27.82.806 52.565-9.06 61.522-14.13l-.986-1.74c-8.71 4.93-33.098 14.664-60.478 13.87l-.058 2Z" fill="#fff" fill-opacity=".49"/></svg>