<svg width="194" height="167" fill="none" xmlns="http://www.w3.org/2000/svg"><path d="m4.253 166.359 35.242-134.89L49.824 77.04c-14.178 0-26.127-4.455-35.849-13.367C4.658 54.761 0 42.812 0 27.824 0 12.836 4.658.887 13.975-8.025 23.697-17.342 35.444-22 49.216-22c14.178 0 25.925 4.658 35.242 13.975 9.317 9.317 13.975 21.266 13.975 35.849 0 4.456-.405 9.114-1.215 13.975-.406 4.456-1.62 9.722-3.646 15.798-1.62 5.67-4.456 13.165-8.507 22.481L53.47 166.36H4.253Zm128.814 0 35.241-134.89 10.329 45.571c-14.177 0-26.127-4.455-35.849-13.367-9.316-8.912-13.975-20.861-13.975-35.849 0-14.988 4.659-26.937 13.975-35.849C152.51-17.342 164.257-22 178.03-22c14.177 0 25.924 4.658 35.241 13.975s13.975 21.266 13.975 35.849c0 4.456-.405 9.114-1.215 13.975-.405 4.456-1.62 9.722-3.646 15.798-1.62 5.67-4.456 13.165-8.506 22.481l-31.596 86.281h-49.216Z" fill="#F2F3F5"/></svg>