<svg width="93" height="93" fill="none" xmlns="http://www.w3.org/2000/svg"><rect width="92.437" height="92.437" rx="23.109" fill="url(#a)"/><rect x="6.469" y="6.471" width="79.496" height="79.496" rx="18.487" fill="#fff"/><path d="M28 38c-1.1 0-2-.9-2-2s.9-2 2-2h5.08c-.7 1.2-1.08 2.58-1.08 4h-4Zm4 10h-6c-1.1 0-2-.9-2-2s.9-2 2-2h6v4Zm-8 10c-1.104 0-2-.9-2-2s.896-2 2-2h8c0 1.42.38 2.8 1.08 4H24Zm40-24H40c-2.22 0-4 1.78-4 4v16c0 2.22 1.78 4 4 4h24c2.22 0 4-1.78 4-4V38c0-2.22-1.78-4-4-4Zm0 4v2H40v-2h24ZM40 54v-8h24v8H40Z" fill="#FAB355"/><defs><linearGradient id="a" x1="11.555" y1="4.622" x2="82.731" y2="85.966" gradientUnits="userSpaceOnUse"><stop stop-color="#fff"/><stop offset="1" stop-color="#FFF2E1"/></linearGradient></defs></svg>