<svg width="39" height="39" fill="none" xmlns="http://www.w3.org/2000/svg"><circle cx="19.5" cy="19.5" r="19.5" fill="#FAB355"/><path fill-rule="evenodd" clip-rule="evenodd" d="M21.556 11.083a3.79 3.79 0 0 1 5.36 5.361l-7.388 7.389c-.416.416-.671.671-.953.892a5.89 5.89 0 0 1-1.078.665c-.325.155-.667.269-1.225.455l-2.6.867-.625.208a1.555 1.555 0 0 1-1.967-1.967l1.075-3.225c.186-.558.3-.9.455-1.225a5.8 5.8 0 0 1 .666-1.077c.22-.283.475-.538.891-.953l7.39-7.39Zm-7.92 14.101-.82-.822.708-2.126c.206-.619.292-.87.403-1.104a4.33 4.33 0 0 1 .499-.808c.16-.204.346-.393.807-.855l5.732-5.73a5.892 5.892 0 0 0 1.312 1.984 5.886 5.886 0 0 0 1.985 1.312l-5.731 5.73c-.462.463-.65.65-.854.808a4.456 4.456 0 0 1-.808.5c-.233.111-.486.197-1.105.403l-2.126.71-.001-.002Zm11.789-9.313a3.93 3.93 0 0 1-.443-.125 4.413 4.413 0 0 1-1.673-1.055 4.42 4.42 0 0 1-1.055-1.674 3.906 3.906 0 0 1-.126-.442l.46-.46a2.331 2.331 0 0 1 3.296 3.297l-.46.46Z" fill="#fff" stroke="#fff" stroke-width=".5"/></svg>