<svg width="41" height="41" fill="none" xmlns="http://www.w3.org/2000/svg"><g clip-path="url(#a)"><g filter="url(#b)" clip-rule="evenodd"><path fill-rule="evenodd" d="M40.078 20.039v2.004l-.002.83-.002.637-.004.536-.004.473-.006.427-.006.393-.008.365-.008.343-.01.324-.01.308-.012.294-.013.281-.013.27-.015.262-.015.252-.017.244-.017.236-.019.23-.02.223-.02.217-.022.212-.023.207-.023.202-.025.197-.026.194-.026.188-.028.185-.029.182-.03.178-.03.174-.032.171-.033.168-.034.165-.035.162-.036.16-.037.156-.038.154-.039.152-.04.15-.041.146-.042.144-.044.142-.044.14-.046.138-.046.136-.047.134-.05.132-.049.13-.05.127-.052.126-.053.124-.054.123-.055.12-.056.12-.058.117-.058.116-.06.114-.06.112-.062.111-.063.11-.064.107-.065.106-.066.105-.067.103-.069.102-.07.1-.07.1-.072.097-.074.096-.074.095-.076.093-.077.092-.078.091-.079.09-.08.088-.082.087-.083.085-.084.084-.085.084-.087.081-.088.08-.09.08-.09.078-.092.077-.094.076-.094.074-.096.074-.098.072-.099.07-.1.07-.102.07-.103.067-.104.066-.107.065-.107.064-.11.063-.11.062-.112.06-.114.06-.116.059-.117.057-.119.056-.12.055-.123.055-.124.052-.126.052-.127.051-.13.05-.132.049-.133.047-.136.047-.138.045-.14.045-.141.043-.145.042-.146.042-.149.04-.151.04-.154.037-.157.037-.159.036-.162.035-.165.034-.167.033-.171.032-.174.031-.178.03-.18.029-.186.028-.188.026-.193.026-.197.025-.202.024-.206.022-.212.022-.216.02-.223.02-.23.02-.235.017-.244.017-.251.015-.26.015-.27.013-.28.013-.293.012-.307.01-.323.01-.341.008-.363.008-.39.007-.424.005-.469.005-.53.003-.627.003-.808.002h-4.004l-.855-.002-.647-.002-.543-.004-.477-.004-.43-.005-.395-.007-.368-.007-.344-.009-.325-.01-.31-.01-.294-.011-.283-.013-.271-.013-.262-.014-.253-.016-.244-.017-.237-.017-.23-.019-.224-.019-.218-.02-.213-.022-.207-.023-.202-.023-.198-.025-.193-.025-.19-.027-.185-.028-.181-.028-.178-.03-.175-.03-.172-.033-.168-.032-.165-.034-.163-.035-.16-.036-.156-.037-.154-.038-.152-.039-.15-.04-.146-.04-.145-.043-.142-.043-.14-.045-.138-.045-.136-.046-.134-.048-.132-.048-.13-.05-.128-.05-.126-.052-.125-.053-.122-.054-.121-.055-.12-.056-.117-.057-.115-.058-.115-.06-.112-.06-.111-.062-.11-.063-.107-.063-.107-.066-.105-.066-.103-.067-.102-.068-.1-.07-.1-.07-.097-.073-.096-.073-.095-.074-.094-.076-.092-.076-.09-.078-.09-.08-.089-.08-.087-.081-.085-.083-.085-.084-.083-.086-.082-.086-.08-.088-.08-.09-.078-.09-.077-.092-.076-.093-.074-.095-.074-.096-.072-.097-.071-.099-.07-.1-.069-.102-.067-.102-.067-.105-.065-.106-.064-.108-.063-.108-.062-.111-.06-.112-.06-.114-.059-.115-.057-.117-.057-.12-.055-.12-.054-.122-.053-.124-.052-.126-.051-.127-.05-.13-.049-.131-.047-.134-.047-.135-.046-.138L.941 33l-.044-.141-.042-.144-.041-.146-.04-.15-.04-.15-.038-.154-.037-.156-.036-.159-.035-.162-.035-.164-.033-.168-.032-.17-.03-.174-.03-.178-.03-.18-.027-.185-.027-.188-.026-.192-.025-.197-.024-.201-.023-.206-.021-.212-.021-.216-.02-.222-.019-.229-.017-.235-.017-.243-.016-.25-.014-.26-.014-.27-.013-.279-.012-.292-.01-.305-.01-.322-.009-.34-.007-.36-.007-.388-.006-.421-.004-.465-.004-.524-.003-.617-.001-.787L0 20.839v-2.637l.002-.882.002-.658.003-.55.005-.481.005-.434.006-.397.008-.37.008-.345.01-.327.01-.31.011-.296.013-.284.013-.272.014-.263.016-.253.016-.245.018-.238.018-.23.02-.225.02-.218.021-.213.023-.207.023-.203.025-.198.025-.194.027-.19.028-.185.028-.182.03-.178.03-.175.032-.172.033-.169.034-.165.034-.163.036-.16.037-.157.038-.154.039-.152.04-.15.04-.147.043-.144.043-.143.044-.14.045-.138.047-.136.047-.134.048-.133.05-.13.05-.128.052-.126.053-.125.054-.123.055-.12.056-.12.057-.117.058-.116.06-.115.06-.112.061-.111.063-.11.063-.108.065-.106.066-.105.068-.104.068-.102.07-.1.07-.1.072-.097.073-.097.074-.095.076-.093.076-.093.078-.09.08-.09.08-.089.08-.087.084-.086.084-.084.085-.083.087-.082.087-.081.09-.08.09-.078.092-.077.093-.076.094-.075.096-.073.097-.072.099-.071.1-.07.101-.07.103-.067.105-.066.106-.066.107-.064.109-.063.11-.062.112-.061.114-.06.115-.058.117-.058.119-.056.12-.056.122-.054.124-.053.126-.052.127-.051.13-.05.13-.049.134-.048.135-.046.138-.046.14-.045.14-.043.145-.043.146-.041.148-.04.151-.04L7.952.7l.156-.037.158-.037.162-.035.164-.034.167-.033.17-.032.174-.031.177-.03.181-.03.184-.027.188-.027.192-.026.197-.025.2-.024.206-.023.21-.022.217-.02.222-.02.228-.02.234-.017.243-.017.25-.016.258-.014.268-.014.28-.013.29-.012.305-.01.32-.01.337-.009.36-.008.385-.007.418-.005.46-.005.52-.004.608-.003.768-.001L19.059 0h2.728l.911.002.67.002.557.003.486.004.437.006.4.006.37.007.349.008.328.01.311.01.297.011.285.013.273.013.263.014.254.016.246.016.238.017.231.019.225.019.219.02.213.022.208.022.203.023.199.025.194.025.19.027.186.027.182.029.178.03.176.03.172.032.168.032.166.034.163.034.16.036.157.037.155.038.152.039.15.04.147.04.145.042.143.043.14.045.138.045.137.046.134.047.132.048.13.05.129.05.126.052.125.053.123.053.121.055.12.056.117.057.116.058.115.06.112.06.112.061.11.063.107.063.107.065.105.066.104.067.102.069.1.069.1.07.098.072.096.073.095.074.094.076.093.076.09.078.09.079.089.08.087.081.086.083.084.084.084.085.082.087.08.087.08.09.079.09.077.091.076.093.075.095.073.095.073.098.07.098.071.1.069.101.068.103.066.104.066.106.064.107.063.11.062.11.061.111.06.114.059.115.057.117.057.118.055.12.055.122.053.124.052.126.051.127.05.13.05.13.047.133.047.135.046.138.044.139.044.141.042.144.042.146.04.148.04.151.038.153.038.156.036.159.035.16.034.165.034.167.032.17.03.174.03.176.03.18.028.184.027.188.026.192.025.196.024.2.023.205.022.21.02.216.02.222.02.227.018.234.017.242.016.25.014.257.014.268.013.278.012.29.01.303.01.318.01.337.007.357.007.384.006.415.005.456.004.514.002.599.002.75.001 1.17v1.131Z" fill="#fff" fill-opacity=".26"/><path d="M40.078 20.039v2.004l-.002.83-.002.637-.004.536-.004.473-.006.427-.006.393-.008.365-.008.343-.01.324-.01.308-.012.294-.013.281-.013.27-.015.262-.015.252-.017.244-.017.236-.019.23-.02.223-.02.217-.022.212-.023.207-.023.202-.025.197-.026.194-.026.188-.028.185-.029.182-.03.178-.03.174-.032.171-.033.168-.034.165-.035.162-.036.16-.037.156-.038.154-.039.152-.04.15-.041.146-.042.144-.044.142-.044.14-.046.138-.046.136-.047.134-.05.132-.049.13-.05.127-.052.126-.053.124-.054.123-.055.12-.056.12-.058.117-.058.116-.06.114-.06.112-.062.111-.063.11-.064.107-.065.106-.066.105-.067.103-.069.102-.07.1-.07.1-.072.097-.074.096-.074.095-.076.093-.077.092-.078.091-.079.09-.08.088-.082.087-.083.085-.084.084-.085.084-.087.081-.088.08-.09.08-.09.078-.092.077-.094.076-.094.074-.096.074-.098.072-.099.07-.1.07-.102.07-.103.067-.104.066-.107.065-.107.064-.11.063-.11.062-.112.06-.114.06-.116.059-.117.057-.119.056-.12.055-.123.055-.124.052-.126.052-.127.051-.13.05-.132.049-.133.047-.136.047-.138.045-.14.045-.141.043-.145.042-.146.042-.149.04-.151.04-.154.037-.157.037-.159.036-.162.035-.165.034-.167.033-.171.032-.174.031-.178.03-.18.029-.186.028-.188.026-.193.026-.197.025-.202.024-.206.022-.212.022-.216.02-.223.02-.23.02-.235.017-.244.017-.251.015-.26.015-.27.013-.28.013-.293.012-.307.01-.323.01-.341.008-.363.008-.39.007-.424.005-.469.005-.53.003-.627.003-.808.002h-4.004l-.855-.002-.647-.002-.543-.004-.477-.004-.43-.005-.395-.007-.368-.007-.344-.009-.325-.01-.31-.01-.294-.011-.283-.013-.271-.013-.262-.014-.253-.016-.244-.017-.237-.017-.23-.019-.224-.019-.218-.02-.213-.022-.207-.023-.202-.023-.198-.025-.193-.025-.19-.027-.185-.028-.181-.028-.178-.03-.175-.03-.172-.033-.168-.032-.165-.034-.163-.035-.16-.036-.156-.037-.154-.038-.152-.039-.15-.04-.146-.04-.145-.043-.142-.043-.14-.045-.138-.045-.136-.046-.134-.048-.132-.048-.13-.05-.128-.05-.126-.052-.125-.053-.122-.054-.121-.055-.12-.056-.117-.057-.115-.058-.115-.06-.112-.06-.111-.062-.11-.063-.107-.063-.107-.066-.105-.066-.103-.067-.102-.068-.1-.07-.1-.07-.097-.073-.096-.073-.095-.074-.094-.076-.092-.076-.09-.078-.09-.08-.089-.08-.087-.081-.085-.083-.085-.084-.083-.086-.082-.086-.08-.088-.08-.09-.078-.09-.077-.092-.076-.093-.074-.095-.074-.096-.072-.097-.071-.099-.07-.1-.069-.102-.067-.102-.067-.105-.065-.106-.064-.108-.063-.108-.062-.111-.06-.112-.06-.114-.059-.115-.057-.117-.057-.12-.055-.12-.054-.122-.053-.124-.052-.126-.051-.127-.05-.13-.049-.131-.047-.134-.047-.135-.046-.138L.941 33l-.044-.141-.042-.144-.041-.146-.04-.15-.04-.15-.038-.154-.037-.156-.036-.159-.035-.162-.035-.164-.033-.168-.032-.17-.03-.174-.03-.178-.03-.18-.027-.185-.027-.188-.026-.192-.025-.197-.024-.201-.023-.206-.021-.212-.021-.216-.02-.222-.019-.229-.017-.235-.017-.243-.016-.25-.014-.26-.014-.27-.013-.279-.012-.292-.01-.305-.01-.322-.009-.34-.007-.36-.007-.388-.006-.421-.004-.465-.004-.524-.003-.617-.001-.787L0 20.839v-2.637l.002-.882.002-.658.003-.55.005-.481.005-.434.006-.397.008-.37.008-.345.01-.327.01-.31.011-.296.013-.284.013-.272.014-.263.016-.253.016-.245.018-.238.018-.23.02-.225.02-.218.021-.213.023-.207.023-.203.025-.198.025-.194.027-.19.028-.185.028-.182.03-.178.03-.175.032-.172.033-.169.034-.165.034-.163.036-.16.037-.157.038-.154.039-.152.04-.15.04-.147.043-.144.043-.143.044-.14.045-.138.047-.136.047-.134.048-.133.05-.13.05-.128.052-.126.053-.125.054-.123.055-.12.056-.12.057-.117.058-.116.06-.115.06-.112.061-.111.063-.11.063-.108.065-.106.066-.105.068-.104.068-.102.07-.1.07-.1.072-.097.073-.097.074-.095.076-.093.076-.093.078-.09.08-.09.08-.089.08-.087.084-.086.084-.084.085-.083.087-.082.087-.081.09-.08.09-.078.092-.077.093-.076.094-.075.096-.073.097-.072.099-.071.1-.07.101-.07.103-.067.105-.066.106-.066.107-.064.109-.063.11-.062.112-.061.114-.06.115-.058.117-.058.119-.056.12-.056.122-.054.124-.053.126-.052.127-.051.13-.05.13-.049.134-.048.135-.046.138-.046.14-.045.14-.043.145-.043.146-.041.148-.04.151-.04L7.952.7l.156-.037.158-.037.162-.035.164-.034.167-.033.17-.032.174-.031.177-.03.181-.03.184-.027.188-.027.192-.026.197-.025.2-.024.206-.023.21-.022.217-.02.222-.02.228-.02.234-.017.243-.017.25-.016.258-.014.268-.014.28-.013.29-.012.305-.01.32-.01.337-.009.36-.008.385-.007.418-.005.46-.005.52-.004.608-.003.768-.001L19.059 0h2.728l.911.002.67.002.557.003.486.004.437.006.4.006.37.007.349.008.328.01.311.01.297.011.285.013.273.013.263.014.254.016.246.016.238.017.231.019.225.019.219.02.213.022.208.022.203.023.199.025.194.025.19.027.186.027.182.029.178.03.176.03.172.032.168.032.166.034.163.034.16.036.157.037.155.038.152.039.15.04.147.04.145.042.143.043.14.045.138.045.137.046.134.047.132.048.13.05.129.05.126.052.125.053.123.053.121.055.12.056.117.057.116.058.115.06.112.06.112.061.11.063.107.063.107.065.105.066.104.067.102.069.1.069.1.07.098.072.096.073.095.074.094.076.093.076.09.078.09.079.089.08.087.081.086.083.084.084.084.085.082.087.08.087.08.09.079.09.077.091.076.093.075.095.073.095.073.098.07.098.071.1.069.101.068.103.066.104.066.106.064.107.063.11.062.11.061.111.06.114.059.115.057.117.057.118.055.12.055.122.053.124.052.126.051.127.05.13.05.13.047.133.047.135.046.138.044.139.044.141.042.144.042.146.04.148.04.151.038.153.038.156.036.159.035.16.034.165.034.167.032.17.03.174.03.176.03.18.028.184.027.188.026.192.025.196.024.2.023.205.022.21.02.216.02.222.02.227.018.234.017.242.016.25.014.257.014.268.013.278.012.29.01.303.01.318.01.337.007.357.007.384.006.415.005.456.004.514.002.599.002.75.001 1.17v1.131Z" stroke="#000" stroke-opacity=".04" stroke-width=".417"/></g><path d="m21.71 15.03 5.01 5.009m0 0-5.01 5.01m5.01-5.01H14.195" stroke="#fff" stroke-width="1.67" stroke-linecap="round" stroke-linejoin="round"/></g><defs><clipPath id="a"><rect width="40.078" height="40.078" rx="20.039" fill="#fff"/></clipPath><filter id="b" x="-3.549" y="-3.549" width="47.176" height="47.175" filterUnits="userSpaceOnUse" color-interpolation-filters="sRGB"><feFlood flood-opacity="0" result="BackgroundImageFix"/><feGaussianBlur in="BackgroundImageFix" stdDeviation="1.67"/><feComposite in2="SourceAlpha" operator="in" result="effect1_backgroundBlur_4_4710"/><feBlend in="SourceGraphic" in2="effect1_backgroundBlur_4_4710" result="shape"/></filter></defs></svg>