<svg width="22" height="22" fill="none" xmlns="http://www.w3.org/2000/svg"><g clip-path="url(#a)" fill="#3E3E3E"><path d="M20.873 1.29h-6.86c-.622 0-1.127.505-1.127 1.128v6.86c0 .622.505 1.128 1.128 1.128h3.283c-.043 1.796-.46 3.233-1.25 4.314-.623.853-1.566 1.559-2.828 2.116-.58.255-.83.941-.56 1.514l.813 1.715c.262.55.91.792 1.469.55 1.494-.645 2.755-1.462 3.784-2.454 1.254-1.212 2.114-2.58 2.579-4.105.465-1.525.697-3.605.697-6.245V2.418c0-.623-.505-1.128-1.128-1.128ZM2.393 20.611c1.475-.643 2.73-1.46 3.765-2.45 1.266-1.212 2.13-2.575 2.595-4.089.465-1.514.697-3.601.697-6.261V2.418c0-.623-.505-1.128-1.128-1.128h-6.86C.84 1.29.336 1.795.336 2.418v6.86c0 .622.505 1.128 1.128 1.128h3.283c-.043 1.796-.46 3.233-1.25 4.314-.623.853-1.566 1.559-2.827 2.116-.58.255-.83.941-.56 1.514l.81 1.71c.262.551.914.795 1.474.551Z"/></g><defs><clipPath id="a"><path fill="#fff" d="M0 0h22v22H0z"/></clipPath></defs></svg>