<svg width="36" height="36" viewBox="0 0 36 36" fill="none" xmlns="http://www.w3.org/2000/svg">
<path d="M6.77196 27.2775L6.70448 27.1984C5.66868 25.9837 4.86184 24.6061 4.28391 23.0666C3.70541 21.5255 3.41653 19.8815 3.41652 18.1355L6.77196 27.2775ZM6.77196 27.2775L6.85457 27.2144M6.77196 27.2775L6.85457 27.2144M6.85457 27.2144C8.34383 26.0755 10.0087 25.177 11.8497 24.5189C13.6887 23.8615 15.6156 23.5332 17.631 23.5344H17.631M6.85457 27.2144L17.631 23.5344M17.631 23.5344C19.6464 23.5344 21.5733 23.8633 23.4123 24.5206C25.2534 25.1787 26.9183 26.0767 28.4075 27.2144L28.4901 27.2775M17.631 23.5344L28.4901 27.2775M28.4901 27.2775L28.5575 27.1985M28.4901 27.2775L28.5575 27.1985M28.5575 27.1985C29.5945 25.9837 30.402 24.6062 30.9799 23.0666M28.5575 27.1985L30.9799 23.0666M31.8455 18.1353C31.8455 14.1983 30.4606 10.8422 27.6931 8.07343C24.9254 5.30462 21.5693 3.91974 17.631 3.92092L31.8455 18.1353ZM31.8455 18.1353C31.8467 19.8814 31.5584 21.5255 30.9799 23.0666M31.8455 18.1353L30.9799 23.0666M26.0134 29.5957L25.8948 29.6837C24.7392 30.5418 23.4652 31.2007 22.0732 31.6603C20.6802 32.1203 19.1993 32.3499 17.6311 32.3499C17.6311 32.3499 17.6311 32.3499 17.631 32.3499V32.2402C16.0736 32.2414 14.6044 32.014 13.2233 31.5579L26.0134 29.5957ZM26.0134 29.5957L25.8949 29.5076M26.0134 29.5957L25.8949 29.5076M17.6309 26.8413C17.631 26.8413 17.631 26.8413 17.631 26.8413V26.9497L17.6309 26.8413ZM17.6309 26.8413C19.1992 26.8401 20.6802 27.0691 22.0732 27.5291M17.6309 26.8413L22.0732 27.5291M25.8949 29.5076C24.7393 28.6483 23.4652 27.9888 22.0732 27.5291M25.8949 29.5076L22.0732 27.5291M17.6311 19.7888H17.631C15.9254 19.7888 14.4914 19.2049 13.3219 18.0367C12.1526 16.8685 11.5687 15.4345 11.5699 13.7277V13.7277C11.5699 12.022 12.1537 10.588 13.322 9.41859C14.4902 8.24921 15.9242 7.66533 17.631 7.66649H17.631C19.3367 7.66649 20.7707 8.25038 21.9401 9.41866C23.1095 10.5869 23.6934 12.0208 23.6922 13.7276V13.7277C23.6922 15.4333 23.1083 16.8673 21.94 18.0367C20.7718 19.2061 19.3379 19.79 17.6311 19.7888ZM17.631 3.92092C13.6939 3.92092 10.3378 5.30579 7.56904 8.0734C4.80022 10.841 3.41535 14.1971 3.41652 18.1354L17.631 3.92092ZM17.631 7.55681C19.3647 7.55681 20.8269 8.15156 22.0176 9.34107C23.2083 10.5306 23.8031 11.9928 23.8019 13.7277C23.8019 15.4614 23.2071 16.9236 22.0176 18.1143L17.631 7.55681ZM17.6311 35.6568C15.2064 35.6568 12.9292 35.1965 10.7984 34.2764C8.66547 33.3555 6.8112 32.1072 5.23461 30.5318C3.65804 28.9552 2.40982 27.101 1.49004 24.9681C0.57117 22.8373 0.110852 20.5601 0.109684 18.1354C0.109684 15.7107 0.569994 13.4336 1.49002 11.3028C2.41099 9.16986 3.65923 7.3156 5.23466 5.739C6.81124 4.16243 8.66547 2.91421 10.7984 1.99444C12.9292 1.07556 15.2064 0.615247 17.6311 0.614078C20.0557 0.614078 22.3329 1.07439 24.4636 1.99442C26.5966 2.91538 28.4509 4.16363 30.0275 5.73906C31.604 7.31565 32.8528 9.16989 33.7738 11.3028C34.6938 13.4336 35.1535 15.7107 35.1524 18.1354C35.1524 20.5601 34.6921 22.8373 33.772 24.968C32.8511 27.101 31.6028 28.9552 30.0274 30.5318C28.4508 32.1084 26.5966 33.3572 24.4636 34.2782C22.3329 35.1982 20.0557 35.6579 17.6311 35.6568ZM17.631 16.482C18.4215 16.482 19.082 16.2225 19.6039 15.7006C20.1258 15.1787 20.3854 14.5182 20.3854 13.7277C20.3854 12.9372 20.1258 12.2767 19.6039 11.7548C19.082 11.2329 18.4215 10.9733 17.631 10.9733C16.8405 10.9733 16.18 11.2329 15.6581 11.7548C15.1362 12.2767 14.8767 12.9372 14.8767 13.7277C14.8767 14.5182 15.1362 15.1787 15.6581 15.7006C16.18 16.2225 16.8405 16.482 17.631 16.482Z" fill="#6F6F6F" stroke="#FCFCFC" stroke-width="0.219368"/>
</svg>
