<svg width="100" height="100" viewBox="0 0 100 100" fill="none" xmlns="http://www.w3.org/2000/svg">
<rect width="100" height="100" rx="25" fill="url(#paint0_linear_207_6)"/>
<rect x="7" y="7" width="86" height="86" rx="20" fill="white"/>
<path d="M28.25 62.5792V62.5789V38.2632C28.25 37.1139 28.6547 36.136 29.4708 35.316C30.2868 34.4961 31.2586 34.0907 32.3997 34.0921H32.4H41.2H41.45V33.8421V29.4211C41.45 28.2718 41.8547 27.2939 42.6708 26.4739C43.4868 25.654 44.4586 25.2486 45.5997 25.25H45.6H54.4C55.5427 25.25 56.5154 25.6562 57.3314 26.4761C58.1475 27.2961 58.5514 28.2731 58.55 29.4208V29.4211V33.8421V34.0921H58.8H67.6C68.7427 34.0921 69.7154 34.4983 70.5314 35.3183C71.3475 36.1382 71.7514 37.1152 71.75 38.2629V38.2632V62.5789C71.75 63.7282 71.3453 64.7061 70.5292 65.5261C69.7132 66.346 68.7414 66.7514 67.6003 66.75H67.6H32.4C31.2573 66.75 30.2846 66.3438 29.4686 65.5239C28.6525 64.7039 28.2486 63.7269 28.25 62.5792ZM32.15 62.5789V62.8289H32.4H67.6H67.85V62.5789V38.2632V38.0132H67.6H32.4H32.15V38.2632V62.5789ZM45.35 33.8421V34.0921H45.6H54.4H54.65V33.8421V29.4211V29.1711H54.4H45.6H45.35V29.4211V33.8421ZM32.4 33.8421H40.95H41.2V33.5921V29.4211C41.2 28.2053 41.6312 27.1641 42.4936 26.2976C43.356 25.4311 44.3915 24.9985 45.6 25H54.4C55.61 25 56.6462 25.4333 57.5086 26.2998C58.371 27.1663 58.8015 28.2067 58.8 29.4211L32.4 33.8421Z" fill="#FAB355" stroke="white" stroke-width="0.5"/>
<defs>
<linearGradient id="paint0_linear_207_6" x1="12.5" y1="5" x2="89.5" y2="93" gradientUnits="userSpaceOnUse">
<stop stop-color="white"/>
<stop offset="1" stop-color="#FFF2E1"/>
</linearGradient>
</defs>
</svg>
