<svg width="100" height="100" viewBox="0 0 100 100" fill="none" xmlns="http://www.w3.org/2000/svg">
<rect width="100" height="100" rx="25" fill="url(#paint0_linear_207_5)"/>
<rect x="7" y="7" width="86" height="86" rx="20" fill="white"/>
<path d="M32.1538 30.3077C31.3174 30.3077 30.5152 30.64 29.9237 31.2314C29.3323 31.8229 29 32.6251 29 33.4615V61.8462C29 62.6826 29.3323 63.4848 29.9237 64.0763C30.5152 64.6677 31.3174 65 32.1538 65H66.8462C67.6826 65 68.4848 64.6677 69.0763 64.0763C69.6677 63.4848 70 62.6826 70 61.8462V33.4615C70 32.6251 69.6677 31.8229 69.0763 31.2314C68.4848 30.64 67.6826 30.3077 66.8462 30.3077H60.5385M38.4615 24V36.6154M60.5385 24V36.6154M38.4615 30.3077H54.2308M49.4054 36.6154V41.3462M39.8492 42.1346L44.5 44.5M40.5 53.1731L45 50.5M49.4054 57.5V52M58.5 53.1731L53.5 50M58.9615 42.1346L54.8615 44.5" stroke="#FAB355" stroke-width="3.15385" stroke-linecap="round" stroke-linejoin="round"/>
<path d="M49.433 51.1923C51.897 51.1923 53.8945 49.1948 53.8945 46.7308C53.8945 44.2667 51.897 42.2692 49.433 42.2692C46.9689 42.2692 44.9714 44.2667 44.9714 46.7308C44.9714 49.1948 46.9689 51.1923 49.433 51.1923Z" stroke="#FAB355" stroke-width="2.23077" stroke-linecap="round" stroke-linejoin="round"/>
<defs>
<linearGradient id="paint0_linear_207_5" x1="12.5" y1="5" x2="89.5" y2="93" gradientUnits="userSpaceOnUse">
<stop stop-color="white"/>
<stop offset="1" stop-color="#FFF2E1"/>
</linearGradient>
</defs>
</svg>
