<svg width="100" height="100" viewBox="0 0 100 100" fill="none" xmlns="http://www.w3.org/2000/svg">
<rect width="100" height="100" rx="25" fill="url(#paint0_linear_207_8)"/>
<rect x="7" y="7" width="86" height="86" rx="20" fill="white"/>
<path d="M33 49.9231C33 50.6167 33.2755 51.282 33.766 51.7724C34.2565 52.2629 34.9217 52.5385 35.6154 52.5385M35.6154 29C34.9217 29 34.2565 29.2755 33.766 29.766C33.2755 30.2565 33 30.9217 33 31.6154M56.5385 31.6154C56.5385 30.9217 56.2629 30.2565 55.7724 29.766C55.282 29.2755 54.6167 29 53.9231 29M42.1538 29H47.3846M33 38.1538V43.3846M43.4615 60.3846C43.4615 61.0783 43.7371 61.7435 44.2276 62.234C44.718 62.7245 45.3833 63 46.0769 63M67 42.0769C67 41.3833 66.7245 40.718 66.234 40.2276C65.7435 39.7371 65.0783 39.4615 64.3846 39.4615M64.3846 63C65.0783 63 65.7435 62.7245 66.234 62.234C66.7245 61.7435 67 61.0783 67 60.3846M52.6154 63H57.8462M67 48.6154V53.8462M56.5385 49.9231V39.4615H46.0769C45.3833 39.4615 44.718 39.7371 44.2276 40.2276C43.7371 40.718 43.4615 41.3833 43.4615 42.0769V52.5385H53.9231C54.6167 52.5385 55.282 52.2629 55.7724 51.7724C56.2629 51.282 56.5385 50.6167 56.5385 49.9231Z" stroke="#FAB355" stroke-width="3.15" stroke-linecap="round" stroke-linejoin="round"/>
<defs>
<linearGradient id="paint0_linear_207_8" x1="12.5" y1="5" x2="89.5" y2="93" gradientUnits="userSpaceOnUse">
<stop stop-color="white"/>
<stop offset="1" stop-color="#FFF2E1"/>
</linearGradient>
</defs>
</svg>
