<svg width="260" height="50" viewBox="0 0 260 50" fill="none" xmlns="http://www.w3.org/2000/svg">
<path d="M75.5 2.99942L75.6347 2.00853L75.5 2.99942ZM198 48L198.029 47.0004L198 48ZM259.964 34.267C260.111 33.7348 259.799 33.1838 259.267 33.0363L250.594 30.6329C250.062 30.4854 249.511 30.7973 249.363 31.3295C249.216 31.8618 249.528 32.4128 250.06 32.5603L257.769 34.6966L255.633 42.4061C255.485 42.9383 255.797 43.4894 256.33 43.6368C256.862 43.7843 257.413 43.4724 257.56 42.9402L259.964 34.267ZM2.30472 27.0931C9.59121 17.2158 34.5333 -1.55967 75.3653 3.99031L75.6347 2.00853C34.0667 -3.64149 8.40879 15.4497 0.695276 25.9058L2.30472 27.0931ZM75.3653 3.99031C100.925 7.46439 122.785 18.3849 142.667 28.6385C152.588 33.7552 162.04 38.7172 171.168 42.4565C180.301 46.1978 189.177 48.7447 197.971 48.9996L198.029 47.0004C189.573 46.7553 180.949 44.3022 171.926 40.6058C162.898 36.9075 153.537 31.9943 143.583 26.8609C123.715 16.6142 101.575 5.53445 75.6347 2.00853L75.3653 3.99031ZM197.971 48.9996C225.791 49.8059 250.536 39.9399 259.493 34.8703L258.507 33.1297C249.797 38.0601 225.409 47.7941 198.029 47.0004L197.971 48.9996Z" fill="white" fill-opacity="0.49"/>
</svg>
