<svg width="21" height="12" viewBox="0 0 21 12" fill="none" xmlns="http://www.w3.org/2000/svg">
<path d="M1 5.25C0.585786 5.25 0.25 5.58579 0.25 6C0.25 6.41421 0.585786 6.75 1 6.75V5.25ZM20.0303 6.53033C20.3232 6.23744 20.3232 5.76256 20.0303 5.46967L15.2574 0.696699C14.9645 0.403806 14.4896 0.403806 14.1967 0.696699C13.9038 0.989593 13.9038 1.46447 14.1967 1.75736L18.4393 6L14.1967 10.2426C13.9038 10.5355 13.9038 11.0104 14.1967 11.3033C14.4896 11.5962 14.9645 11.5962 15.2574 11.3033L20.0303 6.53033ZM1 6.75H19.5V5.25H1V6.75Z" fill="#FAB355"/>
</svg>
