<svg width="19" height="12" viewBox="0 0 19 12" fill="none" xmlns="http://www.w3.org/2000/svg">
<path d="M1.17236 5.27162C0.793823 5.27162 0.486955 5.57849 0.486955 5.95703C0.486954 6.33557 0.793822 6.64244 1.17236 6.64244L1.17236 5.27162ZM18.1068 6.44169C18.3745 6.17402 18.3745 5.74004 18.1068 5.47238L13.7449 1.11046C13.4772 0.842792 13.0433 0.842792 12.7756 1.11046C12.5079 1.37813 12.5079 1.81211 12.7756 2.07977L16.6529 5.95703L12.7756 9.83429C12.5079 10.102 12.5079 10.5359 12.7756 10.8036C13.0433 11.0713 13.4772 11.0713 13.7449 10.8036L18.1068 6.44169ZM1.17236 6.64244L17.6222 6.64244L17.6222 5.27162L1.17236 5.27162L1.17236 6.64244Z" fill="#303030"/>
</svg>
