<svg width="46" height="46" viewBox="0 0 46 46" fill="none" xmlns="http://www.w3.org/2000/svg">
<circle cx="23.2544" cy="22.7743" r="22.3326" fill="#FAB355"/>
<path d="M15.7217 21.3191C15.1735 21.3191 14.7291 21.7635 14.7291 22.3116C14.7291 22.8598 15.1735 23.3042 15.7217 23.3042V21.3191ZM31.3485 23.0135C31.7361 22.6259 31.7361 21.9974 31.3485 21.6098L25.0319 15.2932C24.6443 14.9056 24.0158 14.9056 23.6282 15.2932C23.2406 15.6808 23.2406 16.3093 23.6282 16.6969L29.243 22.3116L23.6282 27.9264C23.2406 28.314 23.2406 28.9425 23.6282 29.3301C24.0158 29.7177 24.6443 29.7177 25.0319 29.3301L31.3485 23.0135ZM15.7217 23.3042H30.6467V21.3191H15.7217V23.3042Z" fill="white"/>
</svg>
