<svg width="194" height="167" viewBox="0 0 194 167" fill="none" xmlns="http://www.w3.org/2000/svg">
<path d="M4.25327 166.359L39.4946 31.4697L49.824 77.0404C35.6464 77.0404 23.6968 72.5846 13.975 63.673C4.65834 54.7614 0 42.8117 0 27.824C0 12.8363 4.65834 0.886621 13.975 -8.02497C23.6968 -17.3417 35.4439 -22 49.2164 -22C63.394 -22 75.1411 -17.3417 84.4578 -8.02497C93.7745 1.29171 98.4328 13.2414 98.4328 27.824C98.4328 32.2798 98.0277 36.9381 97.2176 41.799C96.8125 46.2548 95.5973 51.5208 93.5719 57.5969C91.9516 63.2679 89.1161 70.7618 85.0654 80.0784L53.4697 166.359H4.25327ZM133.067 166.359L168.308 31.4697L178.637 77.0404C164.46 77.0404 152.51 72.5846 142.788 63.673C133.472 54.7614 128.813 42.8117 128.813 27.824C128.813 12.8363 133.472 0.886621 142.788 -8.02497C152.51 -17.3417 164.257 -22 178.03 -22C192.207 -22 203.954 -17.3417 213.271 -8.02497C222.588 1.29171 227.246 13.2414 227.246 27.824C227.246 32.2798 226.841 36.9381 226.031 41.799C225.626 46.2548 224.411 51.5208 222.385 57.5969C220.765 63.2679 217.929 70.7618 213.879 80.0784L182.283 166.359H133.067Z" fill="#F2F3F5"/>
</svg>
