<svg width="39" height="39" viewBox="0 0 39 39" fill="none" xmlns="http://www.w3.org/2000/svg">
<circle cx="19.5" cy="19.5" r="19.5" fill="#F7F7F7"/>
<path d="M29 24.6471C29 25.2318 28.5259 25.7059 27.9412 25.7059H12.0588C11.4741 25.7059 11 25.2318 11 24.6471C11 24.0623 11.4741 23.5882 12.0588 23.5882H27.9412C28.5259 23.5882 29 24.0623 29 24.6471ZM29 19.3529C29 19.9377 28.5259 20.4118 27.9412 20.4118H12.0588C11.4741 20.4118 11 19.9377 11 19.3529C11 18.7682 11.4741 18.2941 12.0588 18.2941H27.9412C28.5259 18.2941 29 18.7682 29 19.3529ZM29 14.0588C29 14.6436 28.5259 15.1176 27.9412 15.1176H12.0588C11.4741 15.1176 11 14.6436 11 14.0588C11 13.4741 11.4741 13 12.0588 13H27.9412C28.5259 13 29 13.4741 29 14.0588Z" fill="#FAB355"/>
</svg>
