<svg width="26" height="25" viewBox="0 0 26 25" fill="none" xmlns="http://www.w3.org/2000/svg">
<path d="M5.49219 6.65771H21.5473C21.8726 6.65773 22.1943 6.72591 22.4916 6.85786C22.789 6.98981 23.0554 7.1826 23.2737 7.42381C23.492 7.66502 23.6573 7.94929 23.759 8.25831C23.8607 8.56732 23.8965 8.89421 23.8641 9.21791L23.1656 16.2034C23.1081 16.778 22.8392 17.3107 22.4111 17.6982C21.983 18.0857 21.4261 18.3002 20.8487 18.3003H9.73008C9.19157 18.3005 8.66965 18.114 8.25315 17.7727C7.83666 17.4313 7.55135 16.9562 7.44581 16.4281L5.49219 6.65771Z" stroke="white" stroke-width="2.4803" stroke-linejoin="round"/>
<path d="M5.49276 6.65702L4.54972 2.88134C4.48665 2.62957 4.34126 2.4061 4.13665 2.24642C3.93204 2.08674 3.67994 2.00001 3.42039 2H2M8.98553 22.9566H11.314M18.2996 22.9566H20.6281" stroke="white" stroke-width="2.4803" stroke-linecap="round" stroke-linejoin="round"/>
</svg>
