<svg width="93" height="93" viewBox="0 0 93 93" fill="none" xmlns="http://www.w3.org/2000/svg">
<rect width="92.437" height="92.437" rx="23.1092" fill="url(#paint0_linear_274_40)"/>
<rect x="6.46875" y="6.4707" width="79.4958" height="79.4958" rx="18.4874" fill="white"/>
<path d="M58 44.0009H34C32.9391 44.0009 31.9217 44.4224 31.1716 45.1725C30.4214 45.9227 30 46.9401 30 48.0009V64.0009C30 65.0618 30.4214 66.0792 31.1716 66.8294C31.9217 67.5795 32.9391 68.0009 34 68.0009H58C59.0609 68.0009 60.0783 67.5795 60.8284 66.8294C61.5786 66.0792 62 65.0618 62 64.0009V48.0009C62 46.9401 61.5786 45.9227 60.8284 45.1725C60.0783 44.4224 59.0609 44.0009 58 44.0009ZM58 64.0009H34V56.0009H58V64.0009ZM58 52.0009H34V48.0009H58V52.0009ZM31.86 31.8409L34.68 34.6609C40.92 28.4009 51.06 28.4009 57.32 34.6609L60.14 31.8409C52.34 24.0009 39.68 24.0009 31.86 31.8409ZM37.52 37.5009L40.34 40.3209C41.8426 38.8226 43.878 37.9813 46 37.9813C48.122 37.9813 50.1574 38.8226 51.66 40.3209L54.48 37.5009C52.23 35.2537 49.18 33.9915 46 33.9915C42.82 33.9915 39.77 35.2537 37.52 37.5009Z" fill="#FAB355"/>
<defs>
<linearGradient id="paint0_linear_274_40" x1="11.5546" y1="4.62185" x2="82.7311" y2="85.9664" gradientUnits="userSpaceOnUse">
<stop stop-color="white"/>
<stop offset="1" stop-color="#FFF2E1"/>
</linearGradient>
</defs>
</svg>
