<svg width="25" height="24" viewBox="0 0 25 24" fill="none" xmlns="http://www.w3.org/2000/svg">
<g clip-path="url(#clip0_215_358)">
<path fill-rule="evenodd" clip-rule="evenodd" d="M18.3384 4C18.3384 3.73478 18.233 3.48043 18.0455 3.29289C17.858 3.10536 17.6036 3 17.3384 3C17.0732 3 16.8188 3.10536 16.6313 3.29289C16.4437 3.48043 16.3384 3.73478 16.3384 4V5H4.33838C4.07316 5 3.81881 5.10536 3.63127 5.29289C3.44374 5.48043 3.33838 5.73478 3.33838 6C3.33838 6.26522 3.44374 6.51957 3.63127 6.70711C3.81881 6.89464 4.07316 7 4.33838 7H16.3384V8C16.3384 8.26522 16.4437 8.51957 16.6313 8.70711C16.8188 8.89464 17.0732 9 17.3384 9C17.6036 9 17.858 8.89464 18.0455 8.70711C18.233 8.51957 18.3384 8.26522 18.3384 8V7H20.3384C20.6036 7 20.858 6.89464 21.0455 6.70711C21.233 6.51957 21.3384 6.26522 21.3384 6C21.3384 5.73478 21.233 5.48043 21.0455 5.29289C20.858 5.10536 20.6036 5 20.3384 5H18.3384V4ZM4.33838 11C4.07316 11 3.81881 11.1054 3.63127 11.2929C3.44374 11.4804 3.33838 11.7348 3.33838 12C3.33838 12.2652 3.44374 12.5196 3.63127 12.7071C3.81881 12.8946 4.07316 13 4.33838 13H6.33838V14C6.33838 14.2652 6.44374 14.5196 6.63127 14.7071C6.81881 14.8946 7.07316 15 7.33838 15C7.6036 15 7.85795 14.8946 8.04549 14.7071C8.23302 14.5196 8.33838 14.2652 8.33838 14V13H20.3384C20.6036 13 20.858 12.8946 21.0455 12.7071C21.233 12.5196 21.3384 12.2652 21.3384 12C21.3384 11.7348 21.233 11.4804 21.0455 11.2929C20.858 11.1054 20.6036 11 20.3384 11H8.33838V10C8.33838 9.73478 8.23302 9.48043 8.04549 9.29289C7.85795 9.10536 7.6036 9 7.33838 9C7.07316 9 6.81881 9.10536 6.63127 9.29289C6.44374 9.48043 6.33838 9.73478 6.33838 10V11H4.33838ZM3.33838 18C3.33838 17.7348 3.44374 17.4804 3.63127 17.2929C3.81881 17.1054 4.07316 17 4.33838 17H16.3384V16C16.3384 15.7348 16.4437 15.4804 16.6313 15.2929C16.8188 15.1054 17.0732 15 17.3384 15C17.6036 15 17.858 15.1054 18.0455 15.2929C18.233 15.4804 18.3384 15.7348 18.3384 16V17H20.3384C20.6036 17 20.858 17.1054 21.0455 17.2929C21.233 17.4804 21.3384 17.7348 21.3384 18C21.3384 18.2652 21.233 18.5196 21.0455 18.7071C20.858 18.8946 20.6036 19 20.3384 19H18.3384V20C18.3384 20.2652 18.233 20.5196 18.0455 20.7071C17.858 20.8946 17.6036 21 17.3384 21C17.0732 21 16.8188 20.8946 16.6313 20.7071C16.4437 20.5196 16.3384 20.2652 16.3384 20V19H4.33838C4.07316 19 3.81881 18.8946 3.63127 18.7071C3.44374 18.5196 3.33838 18.2652 3.33838 18Z" fill="#F98418"/>
</g>
<defs>
<clipPath id="clip0_215_358">
<rect width="24" height="24" fill="white" transform="translate(0.338379)"/>
</clipPath>
</defs>
</svg>
