<svg width="39" height="39" viewBox="0 0 39 39" fill="none" xmlns="http://www.w3.org/2000/svg">
<circle cx="19.5" cy="19.5" r="19.5" fill="#FAB355"/>
<path fill-rule="evenodd" clip-rule="evenodd" d="M21.5565 11.0833C22.2698 10.3842 23.2301 9.99496 24.2288 10C25.2275 10.0051 26.1839 10.4042 26.89 11.1105C27.5962 11.8168 27.995 12.7732 28 13.772C28.0049 14.7707 27.6154 15.731 26.9162 16.4442L19.5279 23.8327C19.1115 24.2492 18.8566 24.5041 18.5745 24.7249C18.2404 24.9852 17.8789 25.2084 17.4965 25.3904C17.1715 25.5451 16.83 25.659 16.2716 25.8448L13.672 26.7117L13.0473 26.9199C12.7733 27.0114 12.4792 27.0248 12.198 26.9585C11.9168 26.8922 11.6597 26.7489 11.4554 26.5446C11.2511 26.3403 11.1078 26.0832 11.0415 25.8019C10.9752 25.5207 10.9886 25.2266 11.0801 24.9526L12.1552 21.7283C12.341 21.1698 12.4548 20.8283 12.6095 20.5033C12.7919 20.1212 13.0154 19.76 13.276 19.4263C13.4968 19.1432 13.7508 18.8882 14.1672 18.4728L21.5565 11.0833ZM13.6369 25.1842L12.8158 24.362L13.5241 22.2361C13.7303 21.6174 13.8159 21.3654 13.9269 21.1319C14.0631 20.8448 14.2314 20.5744 14.426 20.3243C14.5855 20.12 14.7723 19.9312 15.2335 19.4691L20.9649 13.7385C21.2627 14.4825 21.7093 15.1579 22.2774 15.7233C22.8428 16.291 23.5182 16.7373 24.2621 17.0348L18.5307 22.7654C18.0686 23.2276 17.8808 23.4144 17.6765 23.573C17.426 23.7681 17.1553 23.9358 16.869 24.0731C16.6355 24.184 16.3825 24.2696 15.7637 24.4759L13.6379 25.1851L13.6369 25.1842ZM25.4248 15.8712C25.2749 15.838 25.1271 15.7961 24.9821 15.7456C24.3517 15.5252 23.7795 15.1646 23.3087 14.691C22.8352 14.22 22.4746 13.6479 22.254 13.0175C22.2032 12.8726 22.161 12.7247 22.1276 12.5748L22.5877 12.1156C23.0273 11.6902 23.6163 11.4547 24.228 11.4597C24.8396 11.4647 25.4247 11.7099 25.8572 12.1424C26.2897 12.5749 26.5348 13.1601 26.5399 13.7717C26.5449 14.3833 26.3093 14.9724 25.884 15.4119L25.4248 15.8712Z" fill="white" stroke="white" stroke-width="0.5"/>
</svg>
