<svg width="63" height="63" viewBox="0 0 63 63" fill="none" xmlns="http://www.w3.org/2000/svg">
<circle cx="31.6481" cy="31.0845" r="31.0563" fill="white"/>
<path d="M22.2812 29.6056C21.7367 29.6056 21.2953 30.047 21.2953 30.5916C21.2953 31.1361 21.7367 31.5775 22.2812 31.5775V29.6056ZM41.7108 31.2887C42.0958 30.9037 42.0958 30.2794 41.7108 29.8944L35.4365 23.6201C35.0514 23.2351 34.4272 23.2351 34.0422 23.6201C33.6571 24.0051 33.6571 24.6293 34.0422 25.0144L39.6194 30.5916L34.0422 36.1687C33.6571 36.5538 33.6571 37.178 34.0422 37.563C34.4272 37.9481 35.0514 37.9481 35.4365 37.563L41.7108 31.2887ZM22.2812 31.5775H41.0136V29.6056H22.2812V31.5775Z" fill="black"/>
</svg>
