<svg width="63" height="63" viewBox="0 0 63 63" fill="none" xmlns="http://www.w3.org/2000/svg">
<circle cx="31.5075" cy="31.0845" r="31.0563" fill="#FAB355"/>
<path d="M22.1406 29.6056C21.5961 29.6056 21.1547 30.047 21.1547 30.5916C21.1547 31.1361 21.5961 31.5775 22.1406 31.5775V29.6056ZM41.5702 31.2887C41.9552 30.9037 41.9552 30.2794 41.5702 29.8944L35.2958 23.6201C34.9108 23.2351 34.2866 23.2351 33.9015 23.6201C33.5165 24.0051 33.5165 24.6293 33.9015 25.0144L39.4787 30.5916L33.9015 36.1687C33.5165 36.5538 33.5165 37.178 33.9015 37.563C34.2866 37.9481 34.9108 37.9481 35.2958 37.563L41.5702 31.2887ZM22.1406 31.5775H40.873V29.6056H22.1406V31.5775Z" fill="white"/>
</svg>
