<svg width="146" height="50" viewBox="0 0 146 50" fill="none" xmlns="http://www.w3.org/2000/svg">
<path d="M66.585 36.5V14.6992H71.6303V32.389H82.5618V36.5H66.585ZM92.9503 36.7492C91.1647 36.7492 89.5764 36.3754 88.1853 35.628C86.8149 34.8805 85.7249 33.8631 84.9152 32.5759C84.1262 31.2678 83.7317 29.7833 83.7317 28.1223C83.7317 26.4405 84.1262 24.9559 84.9152 23.6687C85.7249 22.3606 86.8149 21.3432 88.1853 20.6165C89.5764 19.8691 91.1647 19.4954 92.9503 19.4954C94.7152 19.4954 96.2931 19.8691 97.6842 20.6165C99.0753 21.3432 100.165 22.3502 100.954 23.6375C101.743 24.9248 102.138 26.4197 102.138 28.1223C102.138 29.7833 101.743 31.2678 100.954 32.5759C100.165 33.8631 99.0753 34.8805 97.6842 35.628C96.2931 36.3754 94.7152 36.7492 92.9503 36.7492ZM92.9503 32.7627C93.7601 32.7627 94.4868 32.5759 95.1304 32.2021C95.774 31.8284 96.2827 31.2989 96.6565 30.6138C97.0302 29.9078 97.2171 29.0773 97.2171 28.1223C97.2171 27.1464 97.0302 26.3159 96.6565 25.6307C96.2827 24.9456 95.774 24.4161 95.1304 24.0424C94.4868 23.6687 93.7601 23.4818 92.9503 23.4818C92.1406 23.4818 91.4139 23.6687 90.7702 24.0424C90.1266 24.4161 89.6075 24.9456 89.213 25.6307C88.8393 26.3159 88.6524 27.1464 88.6524 28.1223C88.6524 29.0773 88.8393 29.9078 89.213 30.6138C89.6075 31.2989 90.1266 31.8284 90.7702 32.2021C91.4139 32.5759 92.1406 32.7627 92.9503 32.7627ZM113.265 42.7911C111.687 42.7911 110.161 42.5938 108.687 42.1994C107.233 41.8256 106.019 41.2547 105.043 40.4864L106.974 36.9983C107.68 37.5797 108.572 38.0364 109.652 38.3686C110.752 38.7216 111.832 38.8981 112.891 38.8981C114.614 38.8981 115.86 38.514 116.628 37.7458C117.417 36.9775 117.812 35.8356 117.812 34.3199V31.7973L118.123 27.5928L118.061 23.3572V19.7445H122.67V33.697C122.67 36.8114 121.861 39.1057 120.241 40.5799C118.622 42.054 116.296 42.7911 113.265 42.7911ZM112.517 35.6903C110.96 35.6903 109.548 35.3581 108.282 34.6936C107.036 34.0085 106.029 33.0638 105.261 31.8595C104.513 30.6345 104.14 29.2123 104.14 27.5928C104.14 25.9526 104.513 24.5303 105.261 23.3261C106.029 22.1011 107.036 21.1564 108.282 20.492C109.548 19.8276 110.96 19.4954 112.517 19.4954C113.929 19.4954 115.175 19.786 116.255 20.3674C117.334 20.928 118.175 21.8104 118.777 23.0146C119.379 24.1981 119.68 25.7242 119.68 27.5928C119.68 29.4407 119.379 30.9667 118.777 32.171C118.175 33.3545 117.334 34.2369 116.255 34.8182C115.175 35.3996 113.929 35.6903 112.517 35.6903ZM113.483 31.7038C114.334 31.7038 115.092 31.5377 115.756 31.2055C116.421 30.8525 116.94 30.3646 117.313 29.7417C117.687 29.1189 117.874 28.4026 117.874 27.5928C117.874 26.7623 117.687 26.046 117.313 25.4439C116.94 24.821 116.421 24.3434 115.756 24.0112C115.092 23.6583 114.334 23.4818 113.483 23.4818C112.631 23.4818 111.874 23.6583 111.209 24.0112C110.545 24.3434 110.015 24.821 109.621 25.4439C109.247 26.046 109.06 26.7623 109.06 27.5928C109.06 28.4026 109.247 29.1189 109.621 29.7417C110.015 30.3646 110.545 30.8525 111.209 31.2055C111.874 31.5377 112.631 31.7038 113.483 31.7038ZM135.165 36.7492C133.379 36.7492 131.791 36.3754 130.4 35.628C129.03 34.8805 127.94 33.8631 127.13 32.5759C126.341 31.2678 125.946 29.7833 125.946 28.1223C125.946 26.4405 126.341 24.9559 127.13 23.6687C127.94 22.3606 129.03 21.3432 130.4 20.6165C131.791 19.8691 133.379 19.4954 135.165 19.4954C136.93 19.4954 138.508 19.8691 139.899 20.6165C141.29 21.3432 142.38 22.3502 143.169 23.6375C143.958 24.9248 144.353 26.4197 144.353 28.1223C144.353 29.7833 143.958 31.2678 143.169 32.5759C142.38 33.8631 141.29 34.8805 139.899 35.628C138.508 36.3754 136.93 36.7492 135.165 36.7492ZM135.165 32.7627C135.975 32.7627 136.702 32.5759 137.345 32.2021C137.989 31.8284 138.497 31.2989 138.871 30.6138C139.245 29.9078 139.432 29.0773 139.432 28.1223C139.432 27.1464 139.245 26.3159 138.871 25.6307C138.497 24.9456 137.989 24.4161 137.345 24.0424C136.702 23.6687 135.975 23.4818 135.165 23.4818C134.355 23.4818 133.629 23.6687 132.985 24.0424C132.341 24.4161 131.822 24.9456 131.428 25.6307C131.054 26.3159 130.867 27.1464 130.867 28.1223C130.867 29.0773 131.054 29.9078 131.428 30.6138C131.822 31.2989 132.341 31.8284 132.985 32.2021C133.629 32.5759 134.355 32.7627 135.165 32.7627Z" fill="white"/>
<path fill-rule="evenodd" clip-rule="evenodd" d="M22.8063 21.5985C21.7285 22.6969 21.0672 23.7511 21.0672 24.372C21.0672 24.9928 21.7285 26.047 22.8063 27.1454L24.5453 28.9175L26.3175 27.1785C27.4989 26.0189 28.0896 25.0833 28.0896 24.372C28.0896 23.6606 27.4989 22.725 26.3175 21.5655L24.5453 19.8264L22.8063 21.5985ZM0 27.2297C0 29.7416 0.00082571 29.742 6.01365 29.742C14.3885 29.742 17.3007 30.5963 21.1258 34.1744L23.1326 36.0514L23.119 33.8262C23.1053 31.6587 23.0359 31.5286 20.4372 28.8126L17.7695 26.0243H8.88498H0V27.2297ZM30.5681 26.5547C30.5681 26.8463 29.5457 28.0951 28.2961 29.329C26.1014 31.4964 26.0242 31.6484 26.0242 33.7969V36.0213L28.2974 33.9435C31.8982 30.6525 34.0086 30.0188 41.9919 29.83C48.4223 29.678 48.6743 29.6396 48.9056 28.7779C49.0374 28.2859 49.1481 27.4651 49.151 26.9537L49.1568 26.0243H39.8624C32.5703 26.0243 30.5681 26.1387 30.5681 26.5547ZM1.23925 32.7931C1.23925 32.9223 1.73536 34.0402 2.34176 35.2765L3.44428 37.5245L8.26536 37.6608C12.7886 37.7889 13.1918 37.8703 14.7904 38.9794C16.9983 40.5111 18.1756 42.9309 18.1756 45.9386C18.1756 48.4881 18.1987 48.5108 21.2758 48.9722L23.2421 49.2672L23.0496 45.8039C22.8075 41.4546 21.6447 38.6411 19.1307 36.3241C15.9313 33.3751 14.3038 32.8757 7.33221 32.7063C3.98087 32.6245 1.23925 32.6638 1.23925 32.7931ZM35.3185 33.2115C32.7863 34.0121 31.329 34.8956 29.6824 36.6273C27.1928 39.2458 26.3142 41.4356 26.1064 45.5424C25.9841 47.9544 26.0704 49.1569 26.3662 49.1569C26.6103 49.1569 27.7484 48.9557 28.8955 48.7095L30.9812 48.2622V45.9485C30.9812 42.8929 32.2142 40.3587 34.4077 38.9058C35.9167 37.9062 36.5524 37.7769 40.8633 37.5906L45.6456 37.3841L46.772 35.3186C47.3912 34.1827 47.9026 33.114 47.908 32.9434C47.9241 32.4176 37.1006 32.6481 35.3185 33.2115ZM6.19623 40.8523C6.19623 41.7557 13.4933 47.0915 14.7284 47.0915C15.5335 47.0915 15.4361 44.3784 14.5793 42.9276C14.1918 42.2716 13.2806 41.4529 12.5548 41.1084C11.1375 40.4359 6.19623 40.2372 6.19623 40.8523ZM36.1723 41.286C34.5964 42.3253 33.9054 43.6203 33.8872 45.5701C33.874 47.0192 33.9483 47.1233 34.8022 46.8552C36.8961 46.198 42.9605 41.7355 42.9605 40.8523C42.9605 40.6486 41.7056 40.4834 40.1722 40.4851C38.1126 40.4867 37.0675 40.6962 36.1723 41.286Z" fill="#A9E1A5"/>
<path fill-rule="evenodd" clip-rule="evenodd" d="M18.1338 0.598142C15.4881 1.32764 12.102 2.95725 9.97588 4.52407L8.17898 5.84801L11.185 8.85813L14.1914 11.8683L15.9916 10.7265C16.9822 10.0982 18.9939 9.25923 20.4624 8.86185L23.1325 8.13896V4.06968V0L21.5835 0.0367599C20.7317 0.057414 19.1794 0.309811 18.1338 0.598142ZM26.0241 4.08167V8.16374L27.9863 8.64292C29.0656 8.90646 31.1125 9.71114 32.5351 10.4316L35.1218 11.7406L37.9882 8.89614C39.565 7.3318 40.7484 5.87981 40.6183 5.66997C40.4886 5.45971 39.2576 4.56043 37.8829 3.67189C35.1656 1.91588 29.7216 0 27.4484 0H26.0241V4.08167ZM4.85739 9.60416C3.20547 11.7699 1.27844 15.9037 0.622054 18.6878C-0.387932 22.9707 -0.615954 22.7195 4.28444 22.7195H8.56893L8.84859 20.9639C9.00267 19.9985 9.78215 18.0174 10.5815 16.5617L12.0351 13.9151L9.22986 11.0884C7.687 9.53351 6.30234 8.26164 6.15322 8.26164C6.00369 8.26164 5.42042 8.86557 4.85739 9.60416ZM40.1073 11.0293L37.1571 13.9795L38.5926 16.5939C39.3824 18.0319 40.154 19.9985 40.3081 20.9639L40.5877 22.7195H44.8722C47.2289 22.7195 49.1567 22.5679 49.1567 22.3824C49.1567 19.3616 46.3102 12.057 44.0614 9.30632L43.058 8.07906L40.1073 11.0293ZM19.9415 12.2495C16.5113 13.464 13.124 17.2974 12.0591 21.1705L11.6328 22.7195H14.8705C18.0987 22.7195 18.1107 22.7154 18.965 21.3332C20.0394 19.5945 23.7307 16.1102 24.4978 16.1102C25.0707 16.1102 29.9881 20.8718 30.6655 22.0821C30.9398 22.5725 31.7726 22.7195 34.273 22.7195H37.5239L37.0976 21.1705C35.9699 17.069 32.6657 13.4752 28.9074 12.2615C26.2951 11.4176 22.3056 11.4122 19.9415 12.2495Z" fill="#FAB355"/>
</svg>
