<svg width="146" height="50" viewBox="0 0 146 50" fill="none" xmlns="http://www.w3.org/2000/svg">
<path d="M66.585 14.6992H71.6303V32.389H82.5618V36.5H66.585V14.6992ZM92.8895 36.7492C91.1247 36.7492 89.5363 36.3858 88.1245 35.6591C86.7334 34.9117 85.6433 33.8839 84.8543 32.5759C84.0654 31.2678 83.6709 29.7833 83.6709 28.1223C83.6709 26.4612 84.0654 24.9767 84.8543 23.6687C85.6433 22.3606 86.7334 21.3432 88.1245 20.6165C89.5363 19.8691 91.1247 19.4954 92.8895 19.4954C94.6543 19.4954 96.2323 19.8691 97.6234 20.6165C99.0145 21.3432 100.105 22.3606 100.894 23.6687C101.682 24.9767 102.077 26.4612 102.077 28.1223C102.077 29.7833 101.682 31.2678 100.894 32.5759C100.105 33.8839 99.0145 34.9117 97.6234 35.6591C96.2323 36.3858 94.6543 36.7492 92.8895 36.7492ZM92.8895 32.7627C94.1353 32.7627 95.1526 32.3475 95.9416 31.517C96.7514 30.6657 97.1562 29.5341 97.1562 28.1223C97.1562 26.7104 96.7514 25.5892 95.9416 24.7587C95.1526 23.9074 94.1353 23.4818 92.8895 23.4818C91.6437 23.4818 90.616 23.9074 89.8062 24.7587C88.9965 25.5892 88.5916 26.7104 88.5916 28.1223C88.5916 29.5341 88.9965 30.6657 89.8062 31.517C90.616 32.3475 91.6437 32.7627 92.8895 32.7627ZM122.609 19.7445V33.697C122.609 36.7699 121.81 39.0538 120.211 40.5487C118.613 42.0436 116.277 42.7911 113.204 42.7911C111.584 42.7911 110.048 42.5938 108.595 42.1994C107.141 41.8049 105.937 41.2339 104.982 40.4864L106.913 36.9983C107.619 37.5797 108.512 38.0364 109.591 38.3686C110.671 38.7216 111.751 38.8981 112.83 38.8981C114.512 38.8981 115.747 38.514 116.536 37.7458C117.346 36.9983 117.751 35.8564 117.751 34.3199V33.6036C116.484 34.9947 114.72 35.6903 112.456 35.6903C110.92 35.6903 109.508 35.3581 108.221 34.6936C106.954 34.0085 105.947 33.0534 105.2 31.8284C104.452 30.6034 104.079 29.1915 104.079 27.5928C104.079 25.9941 104.452 24.5822 105.2 23.3572C105.947 22.1322 106.954 21.1875 108.221 20.5231C109.508 19.8379 110.92 19.4954 112.456 19.4954C114.886 19.4954 116.734 20.2947 118 21.8934V19.7445H122.609ZM113.422 31.7038C114.709 31.7038 115.758 31.3301 116.567 30.5826C117.398 29.8144 117.813 28.8178 117.813 27.5928C117.813 26.3678 117.398 25.3816 116.567 24.6341C115.758 23.8659 114.709 23.4818 113.422 23.4818C112.135 23.4818 111.076 23.8659 110.245 24.6341C109.415 25.3816 108.999 26.3678 108.999 27.5928C108.999 28.8178 109.415 29.8144 110.245 30.5826C111.076 31.3301 112.135 31.7038 113.422 31.7038ZM135.104 36.7492C133.339 36.7492 131.751 36.3858 130.339 35.6591C128.948 34.9117 127.858 33.8839 127.069 32.5759C126.28 31.2678 125.886 29.7833 125.886 28.1223C125.886 26.4612 126.28 24.9767 127.069 23.6687C127.858 22.3606 128.948 21.3432 130.339 20.6165C131.751 19.8691 133.339 19.4954 135.104 19.4954C136.869 19.4954 138.447 19.8691 139.838 20.6165C141.229 21.3432 142.319 22.3606 143.108 23.6687C143.897 24.9767 144.292 26.4612 144.292 28.1223C144.292 29.7833 143.897 31.2678 143.108 32.5759C142.319 33.8839 141.229 34.9117 139.838 35.6591C138.447 36.3858 136.869 36.7492 135.104 36.7492ZM135.104 32.7627C136.35 32.7627 137.367 32.3475 138.156 31.517C138.966 30.6657 139.371 29.5341 139.371 28.1223C139.371 26.7104 138.966 25.5892 138.156 24.7587C137.367 23.9074 136.35 23.4818 135.104 23.4818C133.858 23.4818 132.831 23.9074 132.021 24.7587C131.211 25.5892 130.806 26.7104 130.806 28.1223C130.806 29.5341 131.211 30.6657 132.021 31.517C132.831 32.3475 133.858 32.7627 135.104 32.7627Z" fill="#222222"/>
<path fill-rule="evenodd" clip-rule="evenodd" d="M22.8063 21.5985C21.7285 22.6969 21.0672 23.7511 21.0672 24.372C21.0672 24.9928 21.7285 26.047 22.8063 27.1454L24.5453 28.9175L26.3175 27.1785C27.4989 26.0189 28.0896 25.0833 28.0896 24.372C28.0896 23.6606 27.4989 22.725 26.3175 21.5655L24.5453 19.8264L22.8063 21.5985ZM0 27.2297C0 29.7416 0.00082571 29.742 6.01365 29.742C14.3885 29.742 17.3007 30.5963 21.1258 34.1744L23.1326 36.0514L23.119 33.8262C23.1053 31.6587 23.0359 31.5286 20.4372 28.8126L17.7695 26.0243H8.88498H0V27.2297ZM30.5681 26.5547C30.5681 26.8463 29.5457 28.0951 28.2961 29.329C26.1014 31.4964 26.0242 31.6484 26.0242 33.7969V36.0213L28.2974 33.9435C31.8982 30.6525 34.0086 30.0188 41.9919 29.83C48.4223 29.678 48.6743 29.6396 48.9056 28.7779C49.0374 28.2859 49.1481 27.4651 49.151 26.9537L49.1568 26.0243H39.8624C32.5703 26.0243 30.5681 26.1387 30.5681 26.5547ZM1.23925 32.7931C1.23925 32.9223 1.73536 34.0402 2.34176 35.2765L3.44428 37.5245L8.26536 37.6608C12.7886 37.7889 13.1918 37.8703 14.7904 38.9794C16.9983 40.5111 18.1756 42.9309 18.1756 45.9386C18.1756 48.4881 18.1987 48.5108 21.2758 48.9722L23.2421 49.2672L23.0496 45.8039C22.8075 41.4546 21.6447 38.6411 19.1307 36.3241C15.9313 33.3751 14.3038 32.8757 7.33221 32.7063C3.98087 32.6245 1.23925 32.6638 1.23925 32.7931ZM35.3185 33.2115C32.7863 34.0121 31.329 34.8956 29.6824 36.6273C27.1928 39.2458 26.3142 41.4356 26.1064 45.5424C25.9841 47.9544 26.0704 49.1569 26.3662 49.1569C26.6103 49.1569 27.7484 48.9557 28.8955 48.7095L30.9812 48.2622V45.9485C30.9812 42.8929 32.2142 40.3587 34.4077 38.9058C35.9167 37.9062 36.5524 37.7769 40.8633 37.5906L45.6456 37.3841L46.772 35.3186C47.3912 34.1827 47.9026 33.114 47.908 32.9434C47.9241 32.4176 37.1006 32.6481 35.3185 33.2115ZM6.19623 40.8523C6.19623 41.7557 13.4933 47.0915 14.7284 47.0915C15.5335 47.0915 15.4361 44.3784 14.5793 42.9276C14.1918 42.2716 13.2806 41.4529 12.5548 41.1084C11.1375 40.4359 6.19623 40.2372 6.19623 40.8523ZM36.1723 41.286C34.5964 42.3253 33.9054 43.6203 33.8872 45.5701C33.874 47.0192 33.9483 47.1233 34.8022 46.8552C36.8961 46.198 42.9605 41.7355 42.9605 40.8523C42.9605 40.6486 41.7056 40.4834 40.1722 40.4851C38.1126 40.4867 37.0675 40.6962 36.1723 41.286Z" fill="#5B9D57"/>
<path fill-rule="evenodd" clip-rule="evenodd" d="M18.1343 0.598142C15.4885 1.32764 12.1025 2.95725 9.97637 4.52407L8.17947 5.84801L11.1855 8.85813L14.1919 11.8683L15.9921 10.7265C16.9827 10.0982 18.9944 9.25923 20.4629 8.86185L23.133 8.13896V4.06968V0L21.584 0.0367599C20.7322 0.057414 19.1798 0.309811 18.1343 0.598142ZM26.0246 4.08167V8.16374L27.9867 8.64292C29.0661 8.90646 31.113 9.71114 32.5356 10.4316L35.1223 11.7406L37.9887 8.89614C39.5654 7.3318 40.7489 5.87981 40.6188 5.66997C40.4891 5.45971 39.2581 4.56043 37.8834 3.67189C35.1661 1.91588 29.7221 0 27.4489 0H26.0246V4.08167ZM4.85787 9.60416C3.20596 11.7699 1.27893 15.9037 0.622542 18.6878C-0.387443 22.9707 -0.615466 22.7195 4.28493 22.7195H8.56942L8.84907 20.9639C9.00315 19.9985 9.78264 18.0174 10.582 16.5617L12.0356 13.9151L9.23034 11.0884C7.68748 9.53351 6.30283 8.26164 6.15371 8.26164C6.00417 8.26164 5.42091 8.86557 4.85787 9.60416ZM40.1078 11.0293L37.1576 13.9795L38.593 16.5939C39.3829 18.0319 40.1545 19.9985 40.3086 20.9639L40.5882 22.7195H44.8727C47.2293 22.7195 49.1572 22.5679 49.1572 22.3824C49.1572 19.3616 46.3107 12.057 44.0618 9.30632L43.0585 8.07906L40.1078 11.0293ZM19.942 12.2495C16.5117 13.464 13.1245 17.2974 12.0595 21.1705L11.6332 22.7195H14.871C18.0992 22.7195 18.1112 22.7154 18.9655 21.3332C20.0399 19.5945 23.7312 16.1102 24.4983 16.1102C25.0712 16.1102 29.9885 20.8718 30.666 22.0821C30.9403 22.5725 31.7731 22.7195 34.2734 22.7195H37.5244L37.0981 21.1705C35.9704 17.069 32.6661 13.4752 28.9079 12.2615C26.2956 11.4176 22.306 11.4122 19.942 12.2495Z" fill="#FAB355"/>
</svg>
