<svg width="41" height="41" viewBox="0 0 41 41" fill="none" xmlns="http://www.w3.org/2000/svg">
<g clip-path="url(#clip0_4_4710)">
<g filter="url(#filter0_b_4_4710)">
<path fill-rule="evenodd" clip-rule="evenodd" d="M40.0781 20.039L40.0776 22.0429L40.0761 22.8729L40.0736 23.5097L40.0701 24.0463L40.0656 24.519L40.0601 24.9461L40.0536 25.3387L40.0461 25.7039L40.0375 26.0467L40.028 26.3707L40.0175 26.6786L40.0059 26.9725L39.9934 27.2541L39.9799 27.5247L39.9653 27.7856L39.9497 28.0376L39.9332 28.2815L39.9156 28.518L39.897 28.7476L39.8774 28.9709L39.8568 29.1884L39.8352 29.4003L39.8125 29.6071L39.7889 29.8091L39.7642 30.0064L39.7385 30.1995L39.7118 30.3884L39.684 30.5735L39.6553 30.7548L39.6255 30.9326L39.5947 31.1071L39.5629 31.2782L39.53 31.4462L39.4961 31.6113L39.4612 31.7734L39.4252 31.9328L39.3882 32.0894L39.3502 32.2435L39.3111 32.395L39.2709 32.5441L39.2298 32.6908L39.1875 32.8352L39.1442 32.9774L39.0999 33.1174L39.0545 33.2552L39.008 33.391L38.9605 33.5247L38.9119 33.6565L38.8623 33.7863L38.8115 33.9142L38.7597 34.0403L38.7068 34.1645L38.6528 34.287L38.5978 34.4077L38.5416 34.5267L38.4843 34.644L38.4259 34.7597L38.3665 34.8737L38.3059 34.9861L38.2441 35.097L38.1813 35.2062L38.1173 35.314L38.0522 35.4202L37.986 35.5249L37.9186 35.6282L37.8501 35.73L37.7804 35.8304L37.7095 35.9293L37.6375 36.0269L37.5643 36.123L37.4899 36.2178L37.4143 36.3113L37.3375 36.4034L37.2595 36.4941L37.1802 36.5836L37.0998 36.6717L37.0181 36.7586L36.9351 36.8442L36.8509 36.9285L36.7655 37.0115L36.6787 37.0933L36.5907 37.1739L36.5013 37.2532L36.4107 37.3313L36.3187 37.4082L36.2253 37.4839L36.1306 37.5584L36.0346 37.6317L35.9371 37.7038L35.8383 37.7748L35.738 37.8446L35.6364 37.9132L35.5332 37.9807L35.4286 38.047L35.3225 38.1122L35.2149 38.1763L35.1057 38.2392L34.995 38.301L34.8827 38.3617L34.7688 38.4212L34.6533 38.4797L34.5361 38.5371L34.4173 38.5933L34.2967 38.6485L34.1744 38.7026L34.0502 38.7555L33.9243 38.8074L33.7965 38.8583L33.6669 38.908L33.5353 38.9567L33.4017 39.0043L33.2661 39.0508L33.1284 39.0963L32.9886 39.1408L32.8466 39.1841L32.7024 39.2264L32.5559 39.2677L32.407 39.3079L32.2557 39.3471L32.1018 39.3852L31.9454 39.4223L31.7862 39.4583L31.6243 39.4934L31.4595 39.5273L31.2917 39.5603L31.1208 39.5922L30.9467 39.6231L30.7691 39.653L30.5881 39.6818L30.4033 39.7096L30.2147 39.7364L30.022 39.7622L29.8249 39.7869L29.6234 39.8107L29.417 39.8334L29.2054 39.8551L28.9885 39.8758L28.7656 39.8955L28.5365 39.9141L28.3006 39.9318L28.0573 39.9485L27.806 39.9641L27.5459 39.9787L27.276 39.9924L26.9953 40.005L26.7025 40.0166L26.3958 40.0272L26.0732 40.0368L25.732 40.0454L25.3687 40.053L24.9785 40.0596L24.5545 40.0652L24.086 40.0698L23.5554 40.0734L22.9288 40.076L22.1212 40.0775L20.6045 40.0781L18.1166 40.0777L17.2622 40.0763L16.6148 40.0739L16.0718 40.0704L15.5949 40.066L15.1646 40.0606L14.7696 40.0541L14.4024 40.0467L14.058 40.0382L13.7326 40.0288L13.4235 40.0184L13.1286 40.0069L12.846 39.9944L12.5745 39.981L12.3129 39.9665L12.0603 39.951L11.8158 39.9345L11.5787 39.917L11.3485 39.8985L11.1247 39.879L10.9068 39.8585L10.6945 39.8369L10.4873 39.8144L10.285 39.7908L10.0872 39.7662L9.89385 39.7406L9.70457 39.7139L9.51921 39.6863L9.33757 39.6576L9.1595 39.6279L8.98482 39.5972L8.81341 39.5654L8.64513 39.5327L8.47986 39.4988L8.31749 39.464L8.15792 39.4281L8.00105 39.3912L7.84679 39.3532L7.69506 39.3142L7.54578 39.2742L7.39888 39.2331L7.2543 39.1909L7.11196 39.1477L6.97182 39.1035L6.83381 39.0582L6.69787 39.0118L6.56398 38.9643L6.43206 38.9158L6.30209 38.8663L6.17401 38.8156L6.04779 38.7639L5.9234 38.7111L5.80079 38.6572L5.67994 38.6022L5.5608 38.5461L5.44336 38.4889L5.32758 38.4306L5.21343 38.3712L5.10089 38.3107L4.98993 38.2491L4.88053 38.1864L4.77267 38.1225L4.66632 38.0575L4.56147 37.9913L4.45809 37.924L4.35616 37.8556L4.25568 37.786L4.15661 37.7152L4.05895 37.6433L3.96267 37.5701L3.86777 37.4958L3.77422 37.4203L3.68202 37.3436L3.59115 37.2657L3.50159 37.1866L3.41334 37.1062L3.32638 37.0246L3.24071 36.9418L3.1563 36.8577L3.07316 36.7723L2.99126 36.6857L2.91061 36.5977L2.83118 36.5085L2.75298 36.4179L2.67599 36.326L2.6002 36.2328L2.52561 36.1382L2.4522 36.0423L2.37998 35.945L2.30893 35.8462L2.23905 35.7461L2.17033 35.6445L2.10276 35.5415L2.03634 35.437L1.97106 35.331L1.90691 35.2235L1.8439 35.1145L1.78201 35.0039L1.72123 34.8917L1.66158 34.778L1.60303 34.6626L1.54558 34.5455L1.48923 34.4268L1.43398 34.3063L1.37982 34.1842L1.32675 34.0602L1.27476 33.9344L1.22385 33.8068L1.17402 33.6773L1.12525 33.5458L1.07756 33.4124L1.03093 33.277L0.985367 33.1395L0.94086 32.9998L0.897409 32.858L0.855012 32.714L0.813665 32.5676L0.773366 32.4189L0.734112 32.2678L0.695902 32.1141L0.658732 31.9579L0.622601 31.799L0.587505 31.6373L0.553444 31.4727L0.520414 31.3052L0.488415 31.1345L0.457444 30.9606L0.4275 30.7834L0.39858 30.6026L0.370683 30.4182L0.343808 30.2298L0.317953 30.0375L0.293117 29.8408L0.269298 29.6396L0.246495 29.4336L0.224706 29.2225L0.203931 29.0059L0.184169 28.7836L0.165418 28.555L0.147678 28.3196L0.130947 28.0769L0.115224 27.8263L0.10051 27.5669L0.0868025 27.2979L0.0741014 27.0181L0.062406 26.7263L0.0517157 26.4207L0.04203 26.0995L0.0333484 25.7599L0.0256704 25.3986L0.0189956 25.0107L0.0133238 24.5897L0.00865456 24.1253L0.00498773 23.6006L0.00232311 22.9836L0.000660557 22.1966L0 20.8388L0.000341401 18.2016L0.00168478 17.3204L0.0040302 16.6618L0.00737778 16.1123L0.0117277 15.631L0.0170801 15.1975L0.0234354 14.7999L0.0307938 14.4307L0.0391557 14.0846L0.0485215 13.7579L0.0588918 13.4476L0.0702669 13.1516L0.0826476 12.8681L0.0960344 12.5958L0.110428 12.3334L0.125829 12.0801L0.142239 11.835L0.159658 11.5973L0.178087 11.3666L0.197527 11.1423L0.217979 10.924L0.239444 10.7112L0.261924 10.5036L0.285419 10.3009L0.309932 10.1028L0.335462 9.90908L0.362012 9.71949L0.389583 9.53382L0.418177 9.35189L0.447795 9.17354L0.478439 8.9986L0.51011 8.82693L0.542811 8.65841L0.576543 8.4929L0.611309 8.33031L0.647111 8.17051L0.683949 8.01343L0.721828 7.85897L0.760749 7.70704L0.800715 7.55757L0.841727 7.41048L0.88379 7.26572L0.926905 7.1232L0.971075 6.98289L1.0163 6.84471L1.06259 6.70861L1.10995 6.57455L1.15837 6.44248L1.20786 6.31235L1.25843 6.18413L1.31007 6.05776L1.3628 5.93323L1.41661 5.81048L1.47152 5.68948L1.52751 5.57021L1.58461 5.45264L1.64281 5.33672L1.70211 5.22244L1.76253 5.10978L1.82406 4.99869L1.88672 4.88917L1.9505 4.78119L2.01542 4.67472L2.08148 4.56975L2.14868 4.46625L2.21704 4.36421L2.28655 4.26361L2.35722 4.16443L2.42907 4.06666L2.5021 3.97027L2.57631 3.87526L2.65171 3.78161L2.72832 3.6893L2.80614 3.59832L2.88517 3.50866L2.96544 3.42031L3.04694 3.33325L3.12968 3.24747L3.21369 3.16296L3.29896 3.07972L3.3855 2.99772L3.47334 2.91697L3.56248 2.83745L3.65293 2.75914L3.74471 2.68206L3.83782 2.60617L3.93229 2.53149L4.02813 2.45799L4.12535 2.38568L4.22397 2.31453L4.324 2.24456L4.42546 2.17575L4.52838 2.10809L4.63276 2.04157L4.73863 1.9762L4.84601 1.91197L4.95491 1.84886L5.06537 1.78688L5.17741 1.72602L5.29104 1.66627L5.4063 1.60763L5.52321 1.5501L5.6418 1.49367L5.76211 1.43833L5.88415 1.38408L6.00798 1.33092L6.13361 1.27885L6.26109 1.22785L6.39045 1.17793L6.52174 1.12908L6.65501 1.0813L6.79028 1.03459L6.92763 0.988941L7.06709 0.94435L7.20872 0.900815L7.35258 0.858334L7.49874 0.816903L7.64725 0.776521L7.79819 0.737184L7.95163 0.698891L8.10766 0.661638L8.26636 0.625424L8.42783 0.590246L8.59217 0.556103L8.75947 0.522991L8.92987 0.49091L9.10349 0.459857L9.28047 0.429831L9.46096 0.40083L9.64511 0.372852L9.83312 0.345895L10.0252 0.319959L10.2215 0.295042L10.4223 0.271142L10.6279 0.248258L10.8386 0.226388L11.0547 0.205533L11.2766 0.18569L11.5047 0.166859L11.7395 0.149038L11.9816 0.132226L12.2315 0.116424L12.4902 0.101629L12.7584 0.0878413L13.0373 0.0750601L13.3281 0.0632847L13.6325 0.0525144L13.9524 0.0427487L14.2904 0.0339871L14.6499 0.0262292L15.0354 0.0194745L15.4534 0.0137228L15.9139 0.00897376L16.433 0.00522712L17.0407 0.00248269L17.8086 0.000740347L19.0596 0L21.7873 0.000261613L22.6983 0.0015252L23.3686 0.00379082L23.9249 0.00705859L24.4107 0.0113287L24.8476 0.0166013L25.2477 0.0228767L25.6189 0.0301552L25.9667 0.0384372L26.2948 0.0477231L26.6064 0.0580133L26.9034 0.0693084L27.1878 0.081609L27.461 0.0949157L27.7241 0.109229L27.9782 0.12455L28.2239 0.140879L28.4621 0.158218L28.6933 0.176566L28.9181 0.195926L29.1369 0.216297L29.3502 0.237682L29.5582 0.260081L29.7612 0.283495L29.9597 0.307927L30.1537 0.333376L30.3437 0.359845L30.5296 0.387334L30.7119 0.415847L30.8905 0.445383L31.0657 0.475945L31.2376 0.507535L31.4064 0.540154L31.5721 0.573804L31.735 0.608487L31.895 0.644206L32.0523 0.680962L32.2069 0.718758L32.3591 0.757596L32.5087 0.797478L32.656 0.838408L32.8009 0.880386L32.9436 0.923417L33.0841 0.967503L33.2225 1.01265L33.3587 1.05885L33.4929 1.10612L33.6252 1.15446L33.7555 1.20387L33.8838 1.25435L34.0103 1.30591L34.135 1.35855L34.2579 1.41227L34.379 1.46709L34.4985 1.523L34.6162 1.58001L34.7322 1.63811L34.8466 1.69733L34.9594 1.75766L35.0706 1.81911L35.1803 1.88167L35.2884 1.94537L35.395 2.0102L35.5 2.07616L35.6037 2.14327L35.7058 2.21154L35.8065 2.28096L35.9058 2.35154L36.0037 2.42329L36.1002 2.49622L36.1953 2.57034L36.2891 2.64565L36.3815 2.72216L36.4726 2.79988L36.5623 2.87882L36.6508 2.95899L36.738 3.04039L36.8238 3.12303L36.9084 3.20694L36.9918 3.2921L37.0739 3.37855L37.1547 3.46628L37.2344 3.55532L37.3128 3.64566L37.3899 3.73734L37.4659 3.83034L37.5407 3.92471L37.6143 4.02043L37.6867 4.11754L37.7579 4.21605L37.828 4.31597L37.8969 4.41732L37.9647 4.52011L38.0313 4.62438L38.0967 4.73013L38.1611 4.83739L38.2243 4.94617L38.2863 5.0565L38.3473 5.16841L38.4071 5.28192L38.4658 5.39705L38.5235 5.51383L38.58 5.63228L38.6354 5.75245L38.6897 5.87436L38.743 5.99804L38.7951 6.12352L38.8462 6.25085L38.8962 6.38007L38.9452 6.5112L38.993 6.64431L39.0398 6.77942L39.0856 6.9166L39.1302 7.05589L39.1739 7.19735L39.2164 7.34103L39.2579 7.487L39.2984 7.63532L39.3378 7.78606L39.3762 7.93931L39.4135 8.09513L39.4498 8.25361L39.4851 8.41486L39.5193 8.57896L39.5525 8.74603L39.5847 8.91618L39.6158 9.08954L39.6459 9.26624L39.675 9.44644L39.7031 9.6303L39.7301 9.81799L39.7561 10.0097L39.7811 10.2057L39.8051 10.4062L39.8281 10.6114L39.85 10.8216L39.8709 11.0373L39.8909 11.2587L39.9098 11.4863L39.9277 11.7205L39.9446 11.962L39.9605 12.2113L39.9753 12.4692L39.9892 12.7367L40.0021 13.0147L40.0139 13.3045L40.0248 13.6077L40.0346 13.9263L40.0434 14.2627L40.0513 14.6203L40.0581 15.0036L40.064 15.4187L40.0688 15.8754L40.0726 16.3889L40.0754 16.9879L40.0773 17.738L40.0781 18.9081L40.0781 20.039Z" fill="white" fill-opacity="0.26"/>
<path fill-rule="evenodd" clip-rule="evenodd" d="M40.0781 20.039L40.0776 22.0429L40.0761 22.8729L40.0736 23.5097L40.0701 24.0463L40.0656 24.519L40.0601 24.9461L40.0536 25.3387L40.0461 25.7039L40.0375 26.0467L40.028 26.3707L40.0175 26.6786L40.0059 26.9725L39.9934 27.2541L39.9799 27.5247L39.9653 27.7856L39.9497 28.0376L39.9332 28.2815L39.9156 28.518L39.897 28.7476L39.8774 28.9709L39.8568 29.1884L39.8352 29.4003L39.8125 29.6071L39.7889 29.8091L39.7642 30.0064L39.7385 30.1995L39.7118 30.3884L39.684 30.5735L39.6553 30.7548L39.6255 30.9326L39.5947 31.1071L39.5629 31.2782L39.53 31.4462L39.4961 31.6113L39.4612 31.7734L39.4252 31.9328L39.3882 32.0894L39.3502 32.2435L39.3111 32.395L39.2709 32.5441L39.2298 32.6908L39.1875 32.8352L39.1442 32.9774L39.0999 33.1174L39.0545 33.2552L39.008 33.391L38.9605 33.5247L38.9119 33.6565L38.8623 33.7863L38.8115 33.9142L38.7597 34.0403L38.7068 34.1645L38.6528 34.287L38.5978 34.4077L38.5416 34.5267L38.4843 34.644L38.4259 34.7597L38.3665 34.8737L38.3059 34.9861L38.2441 35.097L38.1813 35.2062L38.1173 35.314L38.0522 35.4202L37.986 35.5249L37.9186 35.6282L37.8501 35.73L37.7804 35.8304L37.7095 35.9293L37.6375 36.0269L37.5643 36.123L37.4899 36.2178L37.4143 36.3113L37.3375 36.4034L37.2595 36.4941L37.1802 36.5836L37.0998 36.6717L37.0181 36.7586L36.9351 36.8442L36.8509 36.9285L36.7655 37.0115L36.6787 37.0933L36.5907 37.1739L36.5013 37.2532L36.4107 37.3313L36.3187 37.4082L36.2253 37.4839L36.1306 37.5584L36.0346 37.6317L35.9371 37.7038L35.8383 37.7748L35.738 37.8446L35.6364 37.9132L35.5332 37.9807L35.4286 38.047L35.3225 38.1122L35.2149 38.1763L35.1057 38.2392L34.995 38.301L34.8827 38.3617L34.7688 38.4212L34.6533 38.4797L34.5361 38.5371L34.4173 38.5933L34.2967 38.6485L34.1744 38.7026L34.0502 38.7555L33.9243 38.8074L33.7965 38.8583L33.6669 38.908L33.5353 38.9567L33.4017 39.0043L33.2661 39.0508L33.1284 39.0963L32.9886 39.1408L32.8466 39.1841L32.7024 39.2264L32.5559 39.2677L32.407 39.3079L32.2557 39.3471L32.1018 39.3852L31.9454 39.4223L31.7862 39.4583L31.6243 39.4934L31.4595 39.5273L31.2917 39.5603L31.1208 39.5922L30.9467 39.6231L30.7691 39.653L30.5881 39.6818L30.4033 39.7096L30.2147 39.7364L30.022 39.7622L29.8249 39.7869L29.6234 39.8107L29.417 39.8334L29.2054 39.8551L28.9885 39.8758L28.7656 39.8955L28.5365 39.9141L28.3006 39.9318L28.0573 39.9485L27.806 39.9641L27.5459 39.9787L27.276 39.9924L26.9953 40.005L26.7025 40.0166L26.3958 40.0272L26.0732 40.0368L25.732 40.0454L25.3687 40.053L24.9785 40.0596L24.5545 40.0652L24.086 40.0698L23.5554 40.0734L22.9288 40.076L22.1212 40.0775L20.6045 40.0781L18.1166 40.0777L17.2622 40.0763L16.6148 40.0739L16.0718 40.0704L15.5949 40.066L15.1646 40.0606L14.7696 40.0541L14.4024 40.0467L14.058 40.0382L13.7326 40.0288L13.4235 40.0184L13.1286 40.0069L12.846 39.9944L12.5745 39.981L12.3129 39.9665L12.0603 39.951L11.8158 39.9345L11.5787 39.917L11.3485 39.8985L11.1247 39.879L10.9068 39.8585L10.6945 39.8369L10.4873 39.8144L10.285 39.7908L10.0872 39.7662L9.89385 39.7406L9.70457 39.7139L9.51921 39.6863L9.33757 39.6576L9.1595 39.6279L8.98482 39.5972L8.81341 39.5654L8.64513 39.5327L8.47986 39.4988L8.31749 39.464L8.15792 39.4281L8.00105 39.3912L7.84679 39.3532L7.69506 39.3142L7.54578 39.2742L7.39888 39.2331L7.2543 39.1909L7.11196 39.1477L6.97182 39.1035L6.83381 39.0582L6.69787 39.0118L6.56398 38.9643L6.43206 38.9158L6.30209 38.8663L6.17401 38.8156L6.04779 38.7639L5.9234 38.7111L5.80079 38.6572L5.67994 38.6022L5.5608 38.5461L5.44336 38.4889L5.32758 38.4306L5.21343 38.3712L5.10089 38.3107L4.98993 38.2491L4.88053 38.1864L4.77267 38.1225L4.66632 38.0575L4.56147 37.9913L4.45809 37.924L4.35616 37.8556L4.25568 37.786L4.15661 37.7152L4.05895 37.6433L3.96267 37.5701L3.86777 37.4958L3.77422 37.4203L3.68202 37.3436L3.59115 37.2657L3.50159 37.1866L3.41334 37.1062L3.32638 37.0246L3.24071 36.9418L3.1563 36.8577L3.07316 36.7723L2.99126 36.6857L2.91061 36.5977L2.83118 36.5085L2.75298 36.4179L2.67599 36.326L2.6002 36.2328L2.52561 36.1382L2.4522 36.0423L2.37998 35.945L2.30893 35.8462L2.23905 35.7461L2.17033 35.6445L2.10276 35.5415L2.03634 35.437L1.97106 35.331L1.90691 35.2235L1.8439 35.1145L1.78201 35.0039L1.72123 34.8917L1.66158 34.778L1.60303 34.6626L1.54558 34.5455L1.48923 34.4268L1.43398 34.3063L1.37982 34.1842L1.32675 34.0602L1.27476 33.9344L1.22385 33.8068L1.17402 33.6773L1.12525 33.5458L1.07756 33.4124L1.03093 33.277L0.985367 33.1395L0.94086 32.9998L0.897409 32.858L0.855012 32.714L0.813665 32.5676L0.773366 32.4189L0.734112 32.2678L0.695902 32.1141L0.658732 31.9579L0.622601 31.799L0.587505 31.6373L0.553444 31.4727L0.520414 31.3052L0.488415 31.1345L0.457444 30.9606L0.4275 30.7834L0.39858 30.6026L0.370683 30.4182L0.343808 30.2298L0.317953 30.0375L0.293117 29.8408L0.269298 29.6396L0.246495 29.4336L0.224706 29.2225L0.203931 29.0059L0.184169 28.7836L0.165418 28.555L0.147678 28.3196L0.130947 28.0769L0.115224 27.8263L0.10051 27.5669L0.0868025 27.2979L0.0741014 27.0181L0.062406 26.7263L0.0517157 26.4207L0.04203 26.0995L0.0333484 25.7599L0.0256704 25.3986L0.0189956 25.0107L0.0133238 24.5897L0.00865456 24.1253L0.00498773 23.6006L0.00232311 22.9836L0.000660557 22.1966L0 20.8388L0.000341401 18.2016L0.00168478 17.3204L0.0040302 16.6618L0.00737778 16.1123L0.0117277 15.631L0.0170801 15.1975L0.0234354 14.7999L0.0307938 14.4307L0.0391557 14.0846L0.0485215 13.7579L0.0588918 13.4476L0.0702669 13.1516L0.0826476 12.8681L0.0960344 12.5958L0.110428 12.3334L0.125829 12.0801L0.142239 11.835L0.159658 11.5973L0.178087 11.3666L0.197527 11.1423L0.217979 10.924L0.239444 10.7112L0.261924 10.5036L0.285419 10.3009L0.309932 10.1028L0.335462 9.90908L0.362012 9.71949L0.389583 9.53382L0.418177 9.35189L0.447795 9.17354L0.478439 8.9986L0.51011 8.82693L0.542811 8.65841L0.576543 8.4929L0.611309 8.33031L0.647111 8.17051L0.683949 8.01343L0.721828 7.85897L0.760749 7.70704L0.800715 7.55757L0.841727 7.41048L0.88379 7.26572L0.926905 7.1232L0.971075 6.98289L1.0163 6.84471L1.06259 6.70861L1.10995 6.57455L1.15837 6.44248L1.20786 6.31235L1.25843 6.18413L1.31007 6.05776L1.3628 5.93323L1.41661 5.81048L1.47152 5.68948L1.52751 5.57021L1.58461 5.45264L1.64281 5.33672L1.70211 5.22244L1.76253 5.10978L1.82406 4.99869L1.88672 4.88917L1.9505 4.78119L2.01542 4.67472L2.08148 4.56975L2.14868 4.46625L2.21704 4.36421L2.28655 4.26361L2.35722 4.16443L2.42907 4.06666L2.5021 3.97027L2.57631 3.87526L2.65171 3.78161L2.72832 3.6893L2.80614 3.59832L2.88517 3.50866L2.96544 3.42031L3.04694 3.33325L3.12968 3.24747L3.21369 3.16296L3.29896 3.07972L3.3855 2.99772L3.47334 2.91697L3.56248 2.83745L3.65293 2.75914L3.74471 2.68206L3.83782 2.60617L3.93229 2.53149L4.02813 2.45799L4.12535 2.38568L4.22397 2.31453L4.324 2.24456L4.42546 2.17575L4.52838 2.10809L4.63276 2.04157L4.73863 1.9762L4.84601 1.91197L4.95491 1.84886L5.06537 1.78688L5.17741 1.72602L5.29104 1.66627L5.4063 1.60763L5.52321 1.5501L5.6418 1.49367L5.76211 1.43833L5.88415 1.38408L6.00798 1.33092L6.13361 1.27885L6.26109 1.22785L6.39045 1.17793L6.52174 1.12908L6.65501 1.0813L6.79028 1.03459L6.92763 0.988941L7.06709 0.94435L7.20872 0.900815L7.35258 0.858334L7.49874 0.816903L7.64725 0.776521L7.79819 0.737184L7.95163 0.698891L8.10766 0.661638L8.26636 0.625424L8.42783 0.590246L8.59217 0.556103L8.75947 0.522991L8.92987 0.49091L9.10349 0.459857L9.28047 0.429831L9.46096 0.40083L9.64511 0.372852L9.83312 0.345895L10.0252 0.319959L10.2215 0.295042L10.4223 0.271142L10.6279 0.248258L10.8386 0.226388L11.0547 0.205533L11.2766 0.18569L11.5047 0.166859L11.7395 0.149038L11.9816 0.132226L12.2315 0.116424L12.4902 0.101629L12.7584 0.0878413L13.0373 0.0750601L13.3281 0.0632847L13.6325 0.0525144L13.9524 0.0427487L14.2904 0.0339871L14.6499 0.0262292L15.0354 0.0194745L15.4534 0.0137228L15.9139 0.00897376L16.433 0.00522712L17.0407 0.00248269L17.8086 0.000740347L19.0596 0L21.7873 0.000261613L22.6983 0.0015252L23.3686 0.00379082L23.9249 0.00705859L24.4107 0.0113287L24.8476 0.0166013L25.2477 0.0228767L25.6189 0.0301552L25.9667 0.0384372L26.2948 0.0477231L26.6064 0.0580133L26.9034 0.0693084L27.1878 0.081609L27.461 0.0949157L27.7241 0.109229L27.9782 0.12455L28.2239 0.140879L28.4621 0.158218L28.6933 0.176566L28.9181 0.195926L29.1369 0.216297L29.3502 0.237682L29.5582 0.260081L29.7612 0.283495L29.9597 0.307927L30.1537 0.333376L30.3437 0.359845L30.5296 0.387334L30.7119 0.415847L30.8905 0.445383L31.0657 0.475945L31.2376 0.507535L31.4064 0.540154L31.5721 0.573804L31.735 0.608487L31.895 0.644206L32.0523 0.680962L32.2069 0.718758L32.3591 0.757596L32.5087 0.797478L32.656 0.838408L32.8009 0.880386L32.9436 0.923417L33.0841 0.967503L33.2225 1.01265L33.3587 1.05885L33.4929 1.10612L33.6252 1.15446L33.7555 1.20387L33.8838 1.25435L34.0103 1.30591L34.135 1.35855L34.2579 1.41227L34.379 1.46709L34.4985 1.523L34.6162 1.58001L34.7322 1.63811L34.8466 1.69733L34.9594 1.75766L35.0706 1.81911L35.1803 1.88167L35.2884 1.94537L35.395 2.0102L35.5 2.07616L35.6037 2.14327L35.7058 2.21154L35.8065 2.28096L35.9058 2.35154L36.0037 2.42329L36.1002 2.49622L36.1953 2.57034L36.2891 2.64565L36.3815 2.72216L36.4726 2.79988L36.5623 2.87882L36.6508 2.95899L36.738 3.04039L36.8238 3.12303L36.9084 3.20694L36.9918 3.2921L37.0739 3.37855L37.1547 3.46628L37.2344 3.55532L37.3128 3.64566L37.3899 3.73734L37.4659 3.83034L37.5407 3.92471L37.6143 4.02043L37.6867 4.11754L37.7579 4.21605L37.828 4.31597L37.8969 4.41732L37.9647 4.52011L38.0313 4.62438L38.0967 4.73013L38.1611 4.83739L38.2243 4.94617L38.2863 5.0565L38.3473 5.16841L38.4071 5.28192L38.4658 5.39705L38.5235 5.51383L38.58 5.63228L38.6354 5.75245L38.6897 5.87436L38.743 5.99804L38.7951 6.12352L38.8462 6.25085L38.8962 6.38007L38.9452 6.5112L38.993 6.64431L39.0398 6.77942L39.0856 6.9166L39.1302 7.05589L39.1739 7.19735L39.2164 7.34103L39.2579 7.487L39.2984 7.63532L39.3378 7.78606L39.3762 7.93931L39.4135 8.09513L39.4498 8.25361L39.4851 8.41486L39.5193 8.57896L39.5525 8.74603L39.5847 8.91618L39.6158 9.08954L39.6459 9.26624L39.675 9.44644L39.7031 9.6303L39.7301 9.81799L39.7561 10.0097L39.7811 10.2057L39.8051 10.4062L39.8281 10.6114L39.85 10.8216L39.8709 11.0373L39.8909 11.2587L39.9098 11.4863L39.9277 11.7205L39.9446 11.962L39.9605 12.2113L39.9753 12.4692L39.9892 12.7367L40.0021 13.0147L40.0139 13.3045L40.0248 13.6077L40.0346 13.9263L40.0434 14.2627L40.0513 14.6203L40.0581 15.0036L40.064 15.4187L40.0688 15.8754L40.0726 16.3889L40.0754 16.9879L40.0773 17.738L40.0781 18.9081L40.0781 20.039Z" stroke="black" stroke-opacity="0.04" stroke-width="0.41748"/>
</g>
<path d="M21.71 15.0291L26.7197 20.0388M26.7197 20.0388L21.71 25.0486M26.7197 20.0388H14.1953" stroke="white" stroke-width="1.66992" stroke-linecap="round" stroke-linejoin="round"/>
</g>
<defs>
<filter id="filter0_b_4_4710" x="-3.54883" y="-3.54858" width="47.1758" height="47.1753" filterUnits="userSpaceOnUse" color-interpolation-filters="sRGB">
<feFlood flood-opacity="0" result="BackgroundImageFix"/>
<feGaussianBlur in="BackgroundImageFix" stdDeviation="1.66992"/>
<feComposite in2="SourceAlpha" operator="in" result="effect1_backgroundBlur_4_4710"/>
<feBlend mode="normal" in="SourceGraphic" in2="effect1_backgroundBlur_4_4710" result="shape"/>
</filter>
<clipPath id="clip0_4_4710">
<rect width="40.0781" height="40.0781" rx="20.0391" fill="white"/>
</clipPath>
</defs>
</svg>
