<svg width="41" height="41" viewBox="0 0 41 41" fill="none" xmlns="http://www.w3.org/2000/svg">
<g clip-path="url(#clip0_4_4710)">
<g filter="url(#filter0_b_4_4710)">
<path fill-rule="evenodd" clip-rule="evenodd" d="M1.75187e-06 20.0391L0.000505467 18.0352L0.00200853 17.2052L0.00451484 16.5685L0.0080206 16.0318L0.0125296 15.5591L0.0180419 15.132L0.0245574 14.7394L0.0320762 14.3742L0.0405983 14.0314L0.0501236 13.7074L0.0606522 13.3996L0.0721879 13.1057L0.0847306 12.8241L0.0982766 12.5534L0.11283 12.2925L0.12839 12.0405L0.144961 11.7966L0.162543 11.5602L0.181132 11.3305L0.200732 11.1072L0.221347 10.8897L0.242972 10.6778L0.265616 10.471L0.289271 10.2691L0.313945 10.0717L0.33964 9.87864L0.366351 9.68968L0.394084 9.50462L0.422843 9.32327L0.452624 9.14548L0.483432 8.97107L0.515265 8.79991L0.548129 8.63187L0.582026 8.46684L0.616961 8.3047L0.652926 8.14534L0.689929 7.98868L0.727973 7.83463L0.767058 7.68309L0.807193 7.53401L0.848372 7.3873L0.890605 7.24289L0.933887 7.10074L0.978225 6.96076L1.02362 6.82292L1.07008 6.68715L1.1176 6.55341L1.1662 6.42165L1.21586 6.29183L1.2666 6.1639L1.31842 6.03783L1.37131 5.91358L1.4253 5.79112L1.48038 5.6704L1.53655 5.5514L1.59382 5.43409L1.65219 5.31844L1.71168 5.20441L1.77227 5.092L1.83398 4.98117L1.89682 4.8719L1.96078 4.76415L2.02588 4.65793L2.09212 4.55319L2.15951 4.44993L2.22805 4.34812L2.29774 4.24775L2.36861 4.14879L2.44064 4.05124L2.51385 3.95507L2.58826 3.86028L2.66385 3.76684L2.74065 3.67474L2.81866 3.58398L2.89789 3.49453L2.97835 3.40638L3.06005 3.31953L3.14299 3.23395L3.2272 3.14965L3.31267 3.0666L3.39942 2.9848L3.48747 2.90424L3.57681 2.82492L3.66748 2.74681L3.75946 2.66992L3.85279 2.59422L3.94748 2.51973L4.04354 2.44642L4.14098 2.37429L4.23982 2.30334L4.34008 2.23355L4.44178 2.16492L4.54492 2.09744L4.64954 2.03111L4.75565 1.96592L4.86327 1.90186L4.97242 1.83894L5.08313 1.77713L5.19542 1.71645L5.30931 1.65688L5.42483 1.59842L5.542 1.54106L5.66087 1.4848L5.78144 1.42964L5.90377 1.37557L6.02788 1.32258L6.1538 1.27068L6.28158 1.21985L6.41125 1.17011L6.54285 1.12143L6.67643 1.07382L6.81204 1.02728L6.94971 0.981793L7.08952 0.937371L7.2315 0.894002L7.37572 0.851689L7.52224 0.810426L7.67114 0.770211L7.82247 0.731042L7.97633 0.692914L8.13277 0.655828L8.29191 0.619779L8.45383 0.584764L8.61863 0.550786L8.78642 0.517839L8.95732 0.485921L9.13147 0.45503L9.30899 0.425168L9.49005 0.396333L9.67481 0.368516L9.86345 0.341722L10.0562 0.315946L10.2532 0.291192L10.4548 0.267453L10.6612 0.244733L10.8727 0.223028L11.0897 0.202333L11.3125 0.182649L11.5416 0.16398L11.7776 0.146318L12.0208 0.129667L12.2721 0.114023L12.5323 0.0993895L12.8021 0.0857635L13.0828 0.0731445L13.3757 0.0615249L13.6824 0.0509163L14.005 0.0413109L14.3461 0.0327088L14.7094 0.0251137L15.0996 0.0185182L15.5236 0.0129259L15.9921 0.00833301L16.5227 0.00474724L17.1494 0.00216474L17.9569 0.000581715L19.4736 -1.80131e-06L21.9615 0.000421848L22.8159 0.00184862L23.4633 0.00427101L24.0063 0.00770047L24.4832 0.0121256L24.9135 0.0175615L25.3086 0.0239932L25.6758 0.0314318L26.0202 0.0398776L26.3455 0.0493228L26.6546 0.0597713L26.9495 0.0712269L27.2321 0.0836857L27.5036 0.0971554L27.7652 0.111628L28.0178 0.127108L28.2624 0.143599L28.4994 0.161101L28.7296 0.179606L28.9534 0.19913L29.1713 0.219661L29.3837 0.24121L29.5908 0.26377L29.7932 0.287345L29.9909 0.311938L30.1843 0.33755L30.3736 0.364181L30.5589 0.391833L30.7406 0.420512L30.9186 0.45021L31.0933 0.480933L31.2647 0.512687L31.433 0.54547L31.5983 0.579284L31.7606 0.614135L31.9202 0.650016L32.0771 0.686939L32.2313 0.724902L32.3831 0.763904L32.5323 0.803954L32.6792 0.84505L32.8238 0.887195L32.9662 0.930396L33.1063 0.974651L33.2443 1.01996L33.3803 1.06634L33.5142 1.11378L33.6461 1.16228L33.776 1.21186L33.9041 1.26251L34.0303 1.31425L34.1547 1.36706L34.2773 1.42096L34.3982 1.47595L34.5173 1.53203L34.6348 1.58921L34.7506 1.6475L34.8647 1.70689L34.9772 1.7674L35.0882 1.82902L35.1976 1.89177L35.3055 1.95565L35.4118 2.02065L35.5167 2.0868L35.62 2.15409L35.722 2.22254L35.8225 2.29214L35.9215 2.36291L36.0192 2.43486L36.1155 2.50798L36.2104 2.58228L36.3039 2.65778L36.3961 2.73449L36.487 2.8124L36.5765 2.89153L36.6648 2.97189L36.7517 3.05349L36.8374 3.13634L36.9218 3.22044L37.005 3.30581L37.0869 3.39247L37.1675 3.48041L37.2469 3.56964L37.3252 3.6602L37.4021 3.75209L37.4779 3.84531L37.5525 3.93989L37.6259 4.03584L37.6981 4.13316L37.7692 4.2319L37.8391 4.33204L37.9078 4.43362L37.9754 4.53665L38.0418 4.64115L38.1071 4.74713L38.1712 4.85464L38.2342 4.96366L38.2961 5.07425L38.3569 5.18641L38.4166 5.30017L38.4751 5.41556L38.5325 5.53261L38.5889 5.65134L38.6441 5.77177L38.6983 5.89396L38.7514 6.01793L38.8034 6.1437L38.8543 6.27134L38.9041 6.40085L38.9529 6.5323L39.0006 6.66572L39.0472 6.80116L39.0928 6.93867L39.1373 7.0783L39.1807 7.22011L39.2231 7.36415L39.2645 7.51049L39.3048 7.65919L39.344 7.81033L39.3822 7.96397L39.4194 8.12022L39.4555 8.27913L39.4906 8.44083L39.5247 8.60539L39.5577 8.77294L39.5897 8.9436L39.6207 9.11748L39.6506 9.29473L39.6795 9.4755L39.7074 9.65996L39.7343 9.84828L39.7602 10.0407L39.785 10.2373L39.8088 10.4385L39.8316 10.6445L39.8534 10.8556L39.8742 11.0722L39.894 11.2945L39.9127 11.5231L39.9304 11.7585L39.9472 12.0012L39.9629 12.2518L39.9776 12.5112L39.9913 12.7802L40.004 13.06L40.0157 13.3519L40.0264 13.6574L40.0361 13.9786L40.0448 14.3182L40.0525 14.6796L40.0591 15.0674L40.0648 15.4884L40.0695 15.9528L40.0731 16.4776L40.0758 17.0946L40.0775 17.8815L40.0781 19.2394L40.0778 21.8765L40.0764 22.7578L40.0741 23.4163L40.0707 23.9658L40.0664 24.4471L40.061 24.8807L40.0547 25.2782L40.0473 25.6474L40.039 25.9935L40.0296 26.3203L40.0192 26.6305L40.0079 26.9265L39.9955 27.21L39.9821 27.4823L39.9677 27.7447L39.9523 27.998L39.9359 28.2432L39.9185 28.4808L39.9 28.7115L39.8806 28.9358L39.8601 29.1541L39.8387 29.3669L39.8162 29.5745L39.7927 29.7772L39.7682 29.9753L39.7427 30.169L39.7161 30.3586L39.6885 30.5443L39.6599 30.7262L39.6303 30.9046L39.5997 31.0795L39.568 31.2512L39.5353 31.4197L39.5016 31.5852L39.4668 31.7478L39.431 31.9076L39.3942 32.0647L39.3563 32.2192L39.3174 32.3711L39.2774 32.5206L39.2364 32.6676L39.1943 32.8124L39.1512 32.9549L39.1071 33.0952L39.0618 33.2334L39.0155 33.3695L38.9682 33.5036L38.9198 33.6356L38.8703 33.7658L38.8197 33.894L38.7681 34.0204L38.7153 34.1449L38.6615 34.2676L38.6066 34.3886L38.5506 34.5079L38.4935 34.6255L38.4353 34.7414L38.376 34.8557L38.3156 34.9683L38.2541 35.0794L38.1914 35.189L38.1276 35.2969L38.0627 35.4034L37.9966 35.5084L37.9294 35.6119L37.8611 35.7139L37.7916 35.8145L37.7209 35.9137L37.6491 36.0115L37.576 36.1079L37.5018 36.2029L37.4264 36.2965L37.3498 36.3888L37.272 36.4798L37.193 36.5695L37.1127 36.6578L37.0312 36.7449L36.9484 36.8307L36.8644 36.9152L36.7792 36.9984L36.6926 37.0804L36.6048 37.1612L36.5156 37.2407L36.4252 37.319L36.3334 37.3961L36.2403 37.472L36.1458 37.5466L36.05 37.6201L35.9528 37.6924L35.8542 37.7636L35.7541 37.8336L35.6527 37.9024L35.5497 37.97L35.4454 38.0366L35.3395 38.1019L35.2321 38.1662L35.1232 38.2293L35.0128 38.2912L34.9007 38.3521L34.7871 38.4119L34.6718 38.4705L34.5549 38.528L34.4363 38.5845L34.316 38.6398L34.194 38.694L34.0702 38.7472L33.9445 38.7993L33.817 38.8503L33.6877 38.9002L33.5564 38.949L33.4231 38.9968L33.2878 39.0435L33.1505 39.0892L33.011 39.1338L32.8694 39.1773L32.7255 39.2198L32.5794 39.2612L32.4309 39.3016L32.2799 39.3409L32.1265 39.3792L31.9705 39.4165L31.8118 39.4527L31.6503 39.4879L31.486 39.522L31.3187 39.5551L31.1483 39.5872L30.9746 39.6183L30.7977 39.6483L30.6172 39.6773L30.433 39.7053L30.245 39.7322L30.0529 39.7582L29.8566 39.7831L29.6558 39.807L29.4502 39.8299L29.2395 39.8517L29.0234 39.8726L28.8015 39.8924L28.5734 39.9113L28.3386 39.9291L28.0966 39.9459L27.8466 39.9617L27.5879 39.9765L27.3197 39.9903L27.0408 40.0031L26.75 40.0148L26.4456 40.0256L26.1257 40.0354L25.7877 40.0441L25.4283 40.0519L25.0428 40.0586L24.6247 40.0644L24.1642 40.0691L23.6452 40.0729L23.0374 40.0756L22.2695 40.0774L21.0185 40.0781L18.2908 40.0779L17.3798 40.0766L16.7095 40.0743L16.1532 40.0711L15.6674 40.0668L15.2306 40.0615L14.8305 40.0552L14.4592 40.048L14.1115 40.0397L13.7833 40.0304L13.4718 40.0201L13.1747 40.0088L12.8903 39.9965L12.6171 39.9832L12.354 39.9689L12.1 39.9536L11.8542 39.9372L11.616 39.9199L11.3848 39.9016L11.16 39.8822L10.9412 39.8618L10.728 39.8404L10.52 39.818L10.3169 39.7946L10.1184 39.7702L9.92438 39.7447L9.73446 39.7183L9.54849 39.6908L9.36627 39.6623L9.18764 39.6327L9.01244 39.6022L8.84051 39.5706L8.67174 39.538L8.506 39.5043L8.34317 39.4696L8.18316 39.4339L8.02587 39.3972L7.8712 39.3594L7.71907 39.3205L7.56941 39.2806L7.42214 39.2397L7.27719 39.1977L7.1345 39.1547L6.99401 39.1106L6.85566 39.0655L6.7194 39.0193L6.58518 38.972L6.45295 38.9237L6.32267 38.8743L6.1943 38.8238L6.06779 38.7722L5.94311 38.7196L5.82022 38.6658L5.69908 38.611L5.57967 38.5551L5.46196 38.4981L5.34592 38.44L5.23151 38.3808L5.11872 38.3205L5.00751 38.259L4.89787 38.1964L4.78976 38.1328L4.68317 38.0679L4.57808 38.002L4.47447 37.9348L4.37231 37.8666L4.2716 37.7972L4.17231 37.7266L4.07442 37.6548L3.97792 37.5819L3.88281 37.5078L3.78904 37.4325L3.69663 37.356L3.60555 37.2782L3.51578 37.1993L3.42733 37.1191L3.34016 37.0377L3.25428 36.9551L3.16967 36.8712L3.08633 36.786L3.00424 36.6996L2.92338 36.6118L2.84376 36.5228L2.76537 36.4325L2.68818 36.3408L2.6122 36.2478L2.53742 36.1534L2.46383 36.0577L2.39142 35.9606L2.32019 35.8621L2.25012 35.7622L2.18121 35.6608L2.11346 35.558L2.04686 35.4537L1.98139 35.348L1.91707 35.2407L1.85387 35.132L1.7918 35.0216L1.73085 34.9097L1.67102 34.7962L1.61229 34.6811L1.55467 34.5643L1.49815 34.4458L1.44273 34.3257L1.38839 34.2038L1.33514 34.0801L1.28298 33.9546L1.2319 33.8273L1.1819 33.6981L1.13296 33.5669L1.0851 33.4338L1.0383 33.2987L0.99257 33.1615L0.947892 33.0222L0.904275 32.8808L0.86171 32.7371L0.820195 32.5911L0.779729 32.4428L0.740308 32.2921L0.701932 32.1388L0.664597 31.983L0.6283 31.8245L0.593041 31.6633L0.558816 31.4992L0.52562 31.3321L0.493455 31.1619L0.462323 30.9886L0.432217 30.8119L0.40313 30.6317L0.375073 30.4478L0.348035 30.2601L0.322015 30.0684L0.297021 29.8724L0.273038 29.672L0.250073 29.4668L0.228124 29.2565L0.207189 29.0408L0.187264 28.8194L0.168351 28.5919L0.150453 28.3576L0.133561 28.1161L0.117677 27.8668L0.102803 27.6089L0.0889332 27.3414L0.0760738 27.0634L0.0642178 26.7736L0.053365 26.4704L0.0435193 26.1518L0.0346807 25.8154L0.0268415 25.4578L0.0200056 25.0746L0.0141729 24.6594L0.0093474 24.2028L0.0055213 23.6892L0.00269466 23.0902L0.000875116 22.3401L5.50588e-05 21.17L1.75187e-06 20.0391Z" fill="white" fill-opacity="0.26"/>
<path fill-rule="evenodd" clip-rule="evenodd" d="M1.75187e-06 20.0391L0.000505467 18.0352L0.00200853 17.2052L0.00451484 16.5685L0.0080206 16.0318L0.0125296 15.5591L0.0180419 15.132L0.0245574 14.7394L0.0320762 14.3742L0.0405983 14.0314L0.0501236 13.7074L0.0606522 13.3996L0.0721879 13.1057L0.0847306 12.8241L0.0982766 12.5534L0.11283 12.2925L0.12839 12.0405L0.144961 11.7966L0.162543 11.5602L0.181132 11.3305L0.200732 11.1072L0.221347 10.8897L0.242972 10.6778L0.265616 10.471L0.289271 10.2691L0.313945 10.0717L0.33964 9.87864L0.366351 9.68968L0.394084 9.50462L0.422843 9.32327L0.452624 9.14548L0.483432 8.97107L0.515265 8.79991L0.548129 8.63187L0.582026 8.46684L0.616961 8.3047L0.652926 8.14534L0.689929 7.98868L0.727973 7.83463L0.767058 7.68309L0.807193 7.53401L0.848372 7.3873L0.890605 7.24289L0.933887 7.10074L0.978225 6.96076L1.02362 6.82292L1.07008 6.68715L1.1176 6.55341L1.1662 6.42165L1.21586 6.29183L1.2666 6.1639L1.31842 6.03783L1.37131 5.91358L1.4253 5.79112L1.48038 5.6704L1.53655 5.5514L1.59382 5.43409L1.65219 5.31844L1.71168 5.20441L1.77227 5.092L1.83398 4.98117L1.89682 4.8719L1.96078 4.76415L2.02588 4.65793L2.09212 4.55319L2.15951 4.44993L2.22805 4.34812L2.29774 4.24775L2.36861 4.14879L2.44064 4.05124L2.51385 3.95507L2.58826 3.86028L2.66385 3.76684L2.74065 3.67474L2.81866 3.58398L2.89789 3.49453L2.97835 3.40638L3.06005 3.31953L3.14299 3.23395L3.2272 3.14965L3.31267 3.0666L3.39942 2.9848L3.48747 2.90424L3.57681 2.82492L3.66748 2.74681L3.75946 2.66992L3.85279 2.59422L3.94748 2.51973L4.04354 2.44642L4.14098 2.37429L4.23982 2.30334L4.34008 2.23355L4.44178 2.16492L4.54492 2.09744L4.64954 2.03111L4.75565 1.96592L4.86327 1.90186L4.97242 1.83894L5.08313 1.77713L5.19542 1.71645L5.30931 1.65688L5.42483 1.59842L5.542 1.54106L5.66087 1.4848L5.78144 1.42964L5.90377 1.37557L6.02788 1.32258L6.1538 1.27068L6.28158 1.21985L6.41125 1.17011L6.54285 1.12143L6.67643 1.07382L6.81204 1.02728L6.94971 0.981793L7.08952 0.937371L7.2315 0.894002L7.37572 0.851689L7.52224 0.810426L7.67114 0.770211L7.82247 0.731042L7.97633 0.692914L8.13277 0.655828L8.29191 0.619779L8.45383 0.584764L8.61863 0.550786L8.78642 0.517839L8.95732 0.485921L9.13147 0.45503L9.30899 0.425168L9.49005 0.396333L9.67481 0.368516L9.86345 0.341722L10.0562 0.315946L10.2532 0.291192L10.4548 0.267453L10.6612 0.244733L10.8727 0.223028L11.0897 0.202333L11.3125 0.182649L11.5416 0.16398L11.7776 0.146318L12.0208 0.129667L12.2721 0.114023L12.5323 0.0993895L12.8021 0.0857635L13.0828 0.0731445L13.3757 0.0615249L13.6824 0.0509163L14.005 0.0413109L14.3461 0.0327088L14.7094 0.0251137L15.0996 0.0185182L15.5236 0.0129259L15.9921 0.00833301L16.5227 0.00474724L17.1494 0.00216474L17.9569 0.000581715L19.4736 -1.80131e-06L21.9615 0.000421848L22.8159 0.00184862L23.4633 0.00427101L24.0063 0.00770047L24.4832 0.0121256L24.9135 0.0175615L25.3086 0.0239932L25.6758 0.0314318L26.0202 0.0398776L26.3455 0.0493228L26.6546 0.0597713L26.9495 0.0712269L27.2321 0.0836857L27.5036 0.0971554L27.7652 0.111628L28.0178 0.127108L28.2624 0.143599L28.4994 0.161101L28.7296 0.179606L28.9534 0.19913L29.1713 0.219661L29.3837 0.24121L29.5908 0.26377L29.7932 0.287345L29.9909 0.311938L30.1843 0.33755L30.3736 0.364181L30.5589 0.391833L30.7406 0.420512L30.9186 0.45021L31.0933 0.480933L31.2647 0.512687L31.433 0.54547L31.5983 0.579284L31.7606 0.614135L31.9202 0.650016L32.0771 0.686939L32.2313 0.724902L32.3831 0.763904L32.5323 0.803954L32.6792 0.84505L32.8238 0.887195L32.9662 0.930396L33.1063 0.974651L33.2443 1.01996L33.3803 1.06634L33.5142 1.11378L33.6461 1.16228L33.776 1.21186L33.9041 1.26251L34.0303 1.31425L34.1547 1.36706L34.2773 1.42096L34.3982 1.47595L34.5173 1.53203L34.6348 1.58921L34.7506 1.6475L34.8647 1.70689L34.9772 1.7674L35.0882 1.82902L35.1976 1.89177L35.3055 1.95565L35.4118 2.02065L35.5167 2.0868L35.62 2.15409L35.722 2.22254L35.8225 2.29214L35.9215 2.36291L36.0192 2.43486L36.1155 2.50798L36.2104 2.58228L36.3039 2.65778L36.3961 2.73449L36.487 2.8124L36.5765 2.89153L36.6648 2.97189L36.7517 3.05349L36.8374 3.13634L36.9218 3.22044L37.005 3.30581L37.0869 3.39247L37.1675 3.48041L37.2469 3.56964L37.3252 3.6602L37.4021 3.75209L37.4779 3.84531L37.5525 3.93989L37.6259 4.03584L37.6981 4.13316L37.7692 4.2319L37.8391 4.33204L37.9078 4.43362L37.9754 4.53665L38.0418 4.64115L38.1071 4.74713L38.1712 4.85464L38.2342 4.96366L38.2961 5.07425L38.3569 5.18641L38.4166 5.30017L38.4751 5.41556L38.5325 5.53261L38.5889 5.65134L38.6441 5.77177L38.6983 5.89396L38.7514 6.01793L38.8034 6.1437L38.8543 6.27134L38.9041 6.40085L38.9529 6.5323L39.0006 6.66572L39.0472 6.80116L39.0928 6.93867L39.1373 7.0783L39.1807 7.22011L39.2231 7.36415L39.2645 7.51049L39.3048 7.65919L39.344 7.81033L39.3822 7.96397L39.4194 8.12022L39.4555 8.27913L39.4906 8.44083L39.5247 8.60539L39.5577 8.77294L39.5897 8.9436L39.6207 9.11748L39.6506 9.29473L39.6795 9.4755L39.7074 9.65996L39.7343 9.84828L39.7602 10.0407L39.785 10.2373L39.8088 10.4385L39.8316 10.6445L39.8534 10.8556L39.8742 11.0722L39.894 11.2945L39.9127 11.5231L39.9304 11.7585L39.9472 12.0012L39.9629 12.2518L39.9776 12.5112L39.9913 12.7802L40.004 13.06L40.0157 13.3519L40.0264 13.6574L40.0361 13.9786L40.0448 14.3182L40.0525 14.6796L40.0591 15.0674L40.0648 15.4884L40.0695 15.9528L40.0731 16.4776L40.0758 17.0946L40.0775 17.8815L40.0781 19.2394L40.0778 21.8765L40.0764 22.7578L40.0741 23.4163L40.0707 23.9658L40.0664 24.4471L40.061 24.8807L40.0547 25.2782L40.0473 25.6474L40.039 25.9935L40.0296 26.3203L40.0192 26.6305L40.0079 26.9265L39.9955 27.21L39.9821 27.4823L39.9677 27.7447L39.9523 27.998L39.9359 28.2432L39.9185 28.4808L39.9 28.7115L39.8806 28.9358L39.8601 29.1541L39.8387 29.3669L39.8162 29.5745L39.7927 29.7772L39.7682 29.9753L39.7427 30.169L39.7161 30.3586L39.6885 30.5443L39.6599 30.7262L39.6303 30.9046L39.5997 31.0795L39.568 31.2512L39.5353 31.4197L39.5016 31.5852L39.4668 31.7478L39.431 31.9076L39.3942 32.0647L39.3563 32.2192L39.3174 32.3711L39.2774 32.5206L39.2364 32.6676L39.1943 32.8124L39.1512 32.9549L39.1071 33.0952L39.0618 33.2334L39.0155 33.3695L38.9682 33.5036L38.9198 33.6356L38.8703 33.7658L38.8197 33.894L38.7681 34.0204L38.7153 34.1449L38.6615 34.2676L38.6066 34.3886L38.5506 34.5079L38.4935 34.6255L38.4353 34.7414L38.376 34.8557L38.3156 34.9683L38.2541 35.0794L38.1914 35.189L38.1276 35.2969L38.0627 35.4034L37.9966 35.5084L37.9294 35.6119L37.8611 35.7139L37.7916 35.8145L37.7209 35.9137L37.6491 36.0115L37.576 36.1079L37.5018 36.2029L37.4264 36.2965L37.3498 36.3888L37.272 36.4798L37.193 36.5695L37.1127 36.6578L37.0312 36.7449L36.9484 36.8307L36.8644 36.9152L36.7792 36.9984L36.6926 37.0804L36.6048 37.1612L36.5156 37.2407L36.4252 37.319L36.3334 37.3961L36.2403 37.472L36.1458 37.5466L36.05 37.6201L35.9528 37.6924L35.8542 37.7636L35.7541 37.8336L35.6527 37.9024L35.5497 37.97L35.4454 38.0366L35.3395 38.1019L35.2321 38.1662L35.1232 38.2293L35.0128 38.2912L34.9007 38.3521L34.7871 38.4119L34.6718 38.4705L34.5549 38.528L34.4363 38.5845L34.316 38.6398L34.194 38.694L34.0702 38.7472L33.9445 38.7993L33.817 38.8503L33.6877 38.9002L33.5564 38.949L33.4231 38.9968L33.2878 39.0435L33.1505 39.0892L33.011 39.1338L32.8694 39.1773L32.7255 39.2198L32.5794 39.2612L32.4309 39.3016L32.2799 39.3409L32.1265 39.3792L31.9705 39.4165L31.8118 39.4527L31.6503 39.4879L31.486 39.522L31.3187 39.5551L31.1483 39.5872L30.9746 39.6183L30.7977 39.6483L30.6172 39.6773L30.433 39.7053L30.245 39.7322L30.0529 39.7582L29.8566 39.7831L29.6558 39.807L29.4502 39.8299L29.2395 39.8517L29.0234 39.8726L28.8015 39.8924L28.5734 39.9113L28.3386 39.9291L28.0966 39.9459L27.8466 39.9617L27.5879 39.9765L27.3197 39.9903L27.0408 40.0031L26.75 40.0148L26.4456 40.0256L26.1257 40.0354L25.7877 40.0441L25.4283 40.0519L25.0428 40.0586L24.6247 40.0644L24.1642 40.0691L23.6452 40.0729L23.0374 40.0756L22.2695 40.0774L21.0185 40.0781L18.2908 40.0779L17.3798 40.0766L16.7095 40.0743L16.1532 40.0711L15.6674 40.0668L15.2306 40.0615L14.8305 40.0552L14.4592 40.048L14.1115 40.0397L13.7833 40.0304L13.4718 40.0201L13.1747 40.0088L12.8903 39.9965L12.6171 39.9832L12.354 39.9689L12.1 39.9536L11.8542 39.9372L11.616 39.9199L11.3848 39.9016L11.16 39.8822L10.9412 39.8618L10.728 39.8404L10.52 39.818L10.3169 39.7946L10.1184 39.7702L9.92438 39.7447L9.73446 39.7183L9.54849 39.6908L9.36627 39.6623L9.18764 39.6327L9.01244 39.6022L8.84051 39.5706L8.67174 39.538L8.506 39.5043L8.34317 39.4696L8.18316 39.4339L8.02587 39.3972L7.8712 39.3594L7.71907 39.3205L7.56941 39.2806L7.42214 39.2397L7.27719 39.1977L7.1345 39.1547L6.99401 39.1106L6.85566 39.0655L6.7194 39.0193L6.58518 38.972L6.45295 38.9237L6.32267 38.8743L6.1943 38.8238L6.06779 38.7722L5.94311 38.7196L5.82022 38.6658L5.69908 38.611L5.57967 38.5551L5.46196 38.4981L5.34592 38.44L5.23151 38.3808L5.11872 38.3205L5.00751 38.259L4.89787 38.1964L4.78976 38.1328L4.68317 38.0679L4.57808 38.002L4.47447 37.9348L4.37231 37.8666L4.2716 37.7972L4.17231 37.7266L4.07442 37.6548L3.97792 37.5819L3.88281 37.5078L3.78904 37.4325L3.69663 37.356L3.60555 37.2782L3.51578 37.1993L3.42733 37.1191L3.34016 37.0377L3.25428 36.9551L3.16967 36.8712L3.08633 36.786L3.00424 36.6996L2.92338 36.6118L2.84376 36.5228L2.76537 36.4325L2.68818 36.3408L2.6122 36.2478L2.53742 36.1534L2.46383 36.0577L2.39142 35.9606L2.32019 35.8621L2.25012 35.7622L2.18121 35.6608L2.11346 35.558L2.04686 35.4537L1.98139 35.348L1.91707 35.2407L1.85387 35.132L1.7918 35.0216L1.73085 34.9097L1.67102 34.7962L1.61229 34.6811L1.55467 34.5643L1.49815 34.4458L1.44273 34.3257L1.38839 34.2038L1.33514 34.0801L1.28298 33.9546L1.2319 33.8273L1.1819 33.6981L1.13296 33.5669L1.0851 33.4338L1.0383 33.2987L0.99257 33.1615L0.947892 33.0222L0.904275 32.8808L0.86171 32.7371L0.820195 32.5911L0.779729 32.4428L0.740308 32.2921L0.701932 32.1388L0.664597 31.983L0.6283 31.8245L0.593041 31.6633L0.558816 31.4992L0.52562 31.3321L0.493455 31.1619L0.462323 30.9886L0.432217 30.8119L0.40313 30.6317L0.375073 30.4478L0.348035 30.2601L0.322015 30.0684L0.297021 29.8724L0.273038 29.672L0.250073 29.4668L0.228124 29.2565L0.207189 29.0408L0.187264 28.8194L0.168351 28.5919L0.150453 28.3576L0.133561 28.1161L0.117677 27.8668L0.102803 27.6089L0.0889332 27.3414L0.0760738 27.0634L0.0642178 26.7736L0.053365 26.4704L0.0435193 26.1518L0.0346807 25.8154L0.0268415 25.4578L0.0200056 25.0746L0.0141729 24.6594L0.0093474 24.2028L0.0055213 23.6892L0.00269466 23.0902L0.000875116 22.3401L5.50588e-05 21.17L1.75187e-06 20.0391Z" stroke="black" stroke-opacity="0.04" stroke-width="0.41748"/>
</g>
<path d="M18.3682 25.0491L13.3584 20.0393M13.3584 20.0393L18.3682 15.0295M13.3584 20.0393L25.8828 20.0393" stroke="white" stroke-width="1.66992" stroke-linecap="round" stroke-linejoin="round"/>
</g>
<defs>
<filter id="filter0_b_4_4710" x="-3.54883" y="-3.54858" width="47.1758" height="47.1753" filterUnits="userSpaceOnUse" color-interpolation-filters="sRGB">
<feFlood flood-opacity="0" result="BackgroundImageFix"/>
<feGaussianBlur in="BackgroundImageFix" stdDeviation="1.66992"/>
<feComposite in2="SourceAlpha" operator="in" result="effect1_backgroundBlur_4_4710"/>
<feBlend mode="normal" in="SourceGraphic" in2="effect1_backgroundBlur_4_4710" result="shape"/>
</filter>
<clipPath id="clip0_4_4710">
<rect x="40.0781" y="40.0781" width="40.0781" height="40.0781" rx="20.0391" transform="rotate(-180 40.0781 40.0781)" fill="white"/>
</clipPath>
</defs>
</svg>
