<svg width="22" height="22" viewBox="0 0 22 22" fill="none" xmlns="http://www.w3.org/2000/svg">
<g clip-path="url(#clip0_38_1455)">
<path d="M20.8729 1.29004H14.0137C13.3909 1.29004 12.8855 1.79546 12.8855 2.4182V9.27744C12.8855 9.90021 13.3909 10.4056 14.0137 10.4056H17.2966C17.2538 12.2017 16.8364 13.6389 16.0466 14.7197C15.4239 15.5726 14.4808 16.2788 13.2195 16.8361C12.6396 17.0911 12.3891 17.777 12.6599 18.3501L13.4722 20.065C13.7339 20.6155 14.3815 20.8569 14.941 20.6155C16.4347 19.9702 17.696 19.1534 18.7249 18.1606C19.9794 16.9489 20.8391 15.5816 21.3039 14.0563C21.7687 12.5311 22.0011 10.4507 22.0011 7.81082V2.4182C22.0011 1.79548 21.4956 1.29004 20.8729 1.29004Z" fill="#3E3E3E"/>
<path d="M2.39254 20.611C3.86818 19.9679 5.1227 19.1511 6.15835 18.1606C7.42415 16.9489 8.28833 15.5861 8.75313 14.0721C9.21793 12.5581 9.45031 10.471 9.45031 7.81082V2.4182C9.45031 1.79546 8.94492 1.29004 8.32215 1.29004H1.46291C0.840168 1.29004 0.334751 1.79546 0.334751 2.4182V9.27744C0.334751 9.9002 0.840168 10.4056 1.46291 10.4056H4.74587C4.703 12.2017 4.28558 13.6389 3.49586 14.7197C2.87312 15.5726 1.92997 16.2788 0.668687 16.8361C0.0888113 17.0911 -0.161641 17.777 0.109118 18.3501L0.91914 20.0604C1.1809 20.611 1.83297 20.8547 2.39254 20.611Z" fill="#3E3E3E"/>
</g>
<defs>
<clipPath id="clip0_38_1455">
<rect width="22" height="22" fill="white"/>
</clipPath>
</defs>
</svg>
