<svg width="47" height="47" viewBox="0 0 47 47" fill="none" xmlns="http://www.w3.org/2000/svg">
<rect x="0.772461" y="0.187988" width="45.836" height="45.836" rx="22.918" fill="#FAB355"/>
<path d="M15.2646 17.6794H31.3197C31.645 17.6795 31.9667 17.7476 32.2641 17.8796C32.5615 18.0115 32.8279 18.2043 33.0461 18.4455C33.2644 18.6867 33.4297 18.971 33.5314 19.28C33.6331 19.589 33.669 19.9159 33.6366 20.2396L32.938 27.2252C32.8806 27.7997 32.6117 28.3325 32.1836 28.7199C31.7554 29.1074 31.1986 29.322 30.6212 29.322H19.5025C18.964 29.3222 18.4421 29.1358 18.0256 28.7944C17.6091 28.4531 17.3238 27.9779 17.2183 27.4499L15.2646 17.6794Z" stroke="white" stroke-width="2.4803" stroke-linejoin="round"/>
<path d="M15.2662 17.6787L14.3232 13.9031C14.2601 13.6513 14.1147 13.4278 13.9101 13.2681C13.7055 13.1085 13.4534 13.0217 13.1938 13.0217H11.7734M18.759 33.9783H21.0875M28.073 33.9783H30.4015" stroke="white" stroke-width="2.4803" stroke-linecap="round" stroke-linejoin="round"/>
</svg>
