<svg width="29" height="26" viewBox="0 0 29 26" fill="none" xmlns="http://www.w3.org/2000/svg">
<path d="M14.7498 25.384C14.5705 25.3858 14.3938 25.3408 14.2375 25.2533C13.6726 24.9396 0.5625 17.527 0.5625 8.12739C0.5625 6.48108 1.083 4.87651 2.05026 3.54095C3.01752 2.2054 4.38252 1.20658 5.95189 0.685972C7.52126 0.165365 9.21544 0.149365 10.7945 0.64024C12.3735 1.13112 13.7573 2.10398 14.7498 3.42102C15.7424 2.10398 17.1262 1.13112 18.7052 0.64024C20.2842 0.149365 21.9784 0.165365 23.5478 0.685972C25.1171 1.20658 26.4821 2.2054 27.4494 3.54095C28.4167 4.87651 28.9372 6.48108 28.9372 8.12739C28.9372 12.1278 26.612 16.2328 22.0274 20.3378C19.9456 22.2003 17.6788 23.8473 15.2621 25.2533C15.1058 25.3408 14.9292 25.3858 14.7498 25.384ZM8.44435 2.37516C6.91139 2.37516 5.44122 2.9812 4.35726 4.05995C3.27329 5.1387 2.66433 6.6018 2.66433 8.12739C2.66433 15.3438 12.3853 21.6843 14.7498 23.1224C17.1144 21.6843 26.8353 15.3438 26.8353 8.12739C26.8365 6.79761 26.3748 5.50849 25.5286 4.47935C24.6824 3.45021 23.504 2.74463 22.194 2.48266C20.884 2.22068 19.5232 2.41849 18.3433 3.04244C17.1633 3.66638 16.237 4.67792 15.7219 5.90494C15.6427 6.09676 15.5081 6.26082 15.335 6.37629C15.1619 6.49175 14.9582 6.5534 14.7498 6.5534C14.5414 6.5534 14.3378 6.49175 14.1647 6.37629C13.9916 6.26082 13.8569 6.09676 13.7777 5.90494C13.3403 4.85681 12.5998 3.96168 11.6502 3.33321C10.7006 2.70474 9.58475 2.37128 8.44435 2.37516Z" fill="#FAB355"/>
</svg>
